<?xml version="1.0" encoding="iso-8859-1"?>
<!-- Generator: Adobe Illustrator 19.0.0, SVG Export Plug-In . SVG Version: 6.00 Build 0)  -->
<svg xmlns="http://www.w3.org/2000/svg" xmlns:xlink="http://www.w3.org/1999/xlink" version="1.1" id="Capa_1" x="0px" y="0px" viewBox="0 0 58.184 58.184" style="enable-background:new 0 0 58.184 58.184;" xml:space="preserve">
<g>
	<g>
		<path d="M51.717,30.061c-1.622,0-3.1,0.601-4.235,1.588l-1.811-1.243c1.381-2.612,2.167-5.587,2.167-8.749    c0-10.354-8.392-18.747-18.747-18.747s-18.747,8.394-18.747,18.747c0,3.3,0.855,6.397,2.351,9.091l-1.705,1.165    c-1.166-1.144-2.762-1.852-4.525-1.852C2.894,30.061,0,32.955,0,36.525c0,3.57,2.894,6.465,6.465,6.465    c3.571,0,6.465-2.894,6.465-6.465c0-0.64-0.096-1.257-0.27-1.841l1.842-1.257c3.119,3.861,7.738,6.456,12.973,6.904v2.225    c-2.787,0.718-4.848,3.241-4.848,6.253c0,3.57,2.894,6.465,6.465,6.465c3.57,0,6.465-2.894,6.465-6.465    c0-3.011-2.062-5.534-4.848-6.253V40.33c5.371-0.459,10.092-3.179,13.212-7.207l1.731,1.189c-0.252,0.691-0.398,1.435-0.398,2.214    c0,3.57,2.894,6.465,6.465,6.465s6.465-2.894,6.465-6.465S55.288,30.061,51.717,30.061z M29.091,35.879    c-7.842,0-14.222-6.38-14.222-14.222c0-7.842,6.38-14.222,14.222-14.222s14.222,6.38,14.222,14.222    C43.313,29.499,36.933,35.879,29.091,35.879z"/>
	</g>
</g>
<g>
	<g>
		<path d="M29.091,11.813c-4.728,0-8.404,3.6-8.404,7.414c0,5.101,4.629,5.114,4.629,8.41L25.323,32h7.535v-4.364    c0-3.296,4.636-3.309,4.636-8.41C37.495,15.414,33.818,11.813,29.091,11.813z M32.656,22.028    c-0.951,0.844-2.285,2.027-2.807,3.921h-1.522c-0.522-1.893-1.852-3.077-2.801-3.92c-1.103-0.979-1.606-1.426-1.606-2.802    c0-1.974,2.212-4.181,5.172-4.181c2.96,0,5.172,2.208,5.172,4.181C34.263,20.601,33.759,21.048,32.656,22.028z"/>
	</g>
</g>
<g>
</g>
<g>
</g>
<g>
</g>
<g>
</g>
<g>
</g>
<g>
</g>
<g>
</g>
<g>
</g>
<g>
</g>
<g>
</g>
<g>
</g>
<g>
</g>
<g>
</g>
<g>
</g>
<g>
</g>
</svg>
