<?xml version="1.0" encoding="iso-8859-1"?>
<!-- Generator: Adobe Illustrator 19.0.0, SVG Export Plug-In . SVG Version: 6.00 Build 0)  -->
<svg xmlns="http://www.w3.org/2000/svg" xmlns:xlink="http://www.w3.org/1999/xlink" version="1.1" id="Capa_1" x="0px" y="0px" viewBox="0 0 54.309 54.309" style="enable-background:new 0 0 54.309 54.309;" xml:space="preserve">
<g>
	<g>
		<path d="M49.785,20.433C49.785,9.147,40.649,0,29.376,0S8.967,9.147,8.967,20.433c0,0.754,0.044,1.498,0.122,2.23    c-1.508,3.065-4.296,8.518-4.34,8.619c-0.145,0.323-0.225,0.68-0.225,1.057c0,1.43,1.158,2.59,2.585,2.59h2.596l-0.018,7.387    c0,1.989,1.611,3.601,3.6,3.601l7.46-0.003l2.497,8.395l24.299-7.39l-3.676-12.112C47.523,31.114,49.785,26.042,49.785,20.433z     M27.151,20.687c0,0.244-0.024,0.482-0.062,0.716l4.972,2.879c0.778-0.631,1.767-1.01,2.847-1.01c2.499,0,4.525,2.025,4.525,4.525    s-2.027,4.525-4.525,4.525c-2.5,0-4.525-2.025-4.525-4.525c0-0.244,0.025-0.482,0.063-0.716l-4.973-2.879    c-0.778,0.632-1.767,1.01-2.847,1.01c-2.5,0-4.525-2.025-4.525-4.525c0-2.501,2.025-4.525,4.525-4.525    c1.08,0,2.069,0.379,2.847,1.01l4.972-2.879c-0.037-0.233-0.062-0.471-0.062-0.716c0-2.501,2.025-4.525,4.525-4.525    c2.499,0,4.525,2.025,4.525,4.525s-2.027,4.525-4.525,4.525c-1.08,0-2.069-0.379-2.847-1.01l-4.972,2.879    C27.127,20.205,27.151,20.443,27.151,20.687z"/>
	</g>
</g>
<g>
</g>
<g>
</g>
<g>
</g>
<g>
</g>
<g>
</g>
<g>
</g>
<g>
</g>
<g>
</g>
<g>
</g>
<g>
</g>
<g>
</g>
<g>
</g>
<g>
</g>
<g>
</g>
<g>
</g>
</svg>
