<?xml version="1.0" encoding="iso-8859-1"?>
<!-- Generator: Adobe Illustrator 19.0.0, SVG Export Plug-In . SVG Version: 6.00 Build 0)  -->
<svg xmlns="http://www.w3.org/2000/svg" xmlns:xlink="http://www.w3.org/1999/xlink" version="1.1" id="Capa_1" x="0px" y="0px" viewBox="0 0 51.07 51.07" style="enable-background:new 0 0 51.07 51.07;" xml:space="preserve">
<g>
	<g>
		<path d="M32,0v7.111c0,1.782,1.45,3.232,3.232,3.232h7.111L32,0z"/>
	</g>
</g>
<g>
	<g>
		<path d="M35.232,13.577v-0.001c-3.556,0-6.465-2.909-6.465-6.465V0H2.909v41.374c0,3.556,2.909,6.465,6.465,6.465h12.135    c-1.94-2.74-3.084-6.084-3.084-9.697c0-9.283,7.528-16.808,16.813-16.808c2.541,0,4.947,0.567,7.106,1.577v-9.334H35.232z     M10.667,7.111H22.95v3.232H10.667V7.111z M26.828,18.101L26.828,18.101H10.667v-3.232h16.162V18.101z"/>
	</g>
</g>
<g>
	<g>
		<path d="M45.046,38.141c0-0.605-0.063-1.195-0.169-1.769l3.285-1.897l-3.232-5.598l-3.285,1.897    c-0.895-0.765-1.93-1.365-3.063-1.766v-3.796h-6.465v3.795c-1.133,0.401-2.169,1.001-3.063,1.766l-3.285-1.897l-3.232,5.598    l3.285,1.897c-0.105,0.575-0.169,1.164-0.169,1.769c0,0.604,0.063,1.195,0.169,1.769l-3.285,1.897l3.232,5.598l3.285-1.897    c0.894,0.765,1.93,1.365,3.063,1.766v3.797h6.465v-3.795c1.133-0.401,2.168-1.001,3.063-1.766l3.285,1.896l3.232-5.598    l-3.285-1.897C44.982,39.336,45.046,38.747,45.046,38.141z M35.234,42.667c-2.5,0-4.527-2.026-4.527-4.525    c0-2.499,2.027-4.525,4.527-4.525c2.497,0,4.524,2.026,4.524,4.525C39.758,40.641,37.731,42.667,35.234,42.667z"/>
	</g>
</g>
<g>
</g>
<g>
</g>
<g>
</g>
<g>
</g>
<g>
</g>
<g>
</g>
<g>
</g>
<g>
</g>
<g>
</g>
<g>
</g>
<g>
</g>
<g>
</g>
<g>
</g>
<g>
</g>
<g>
</g>
</svg>
