<?xml version="1.0" encoding="iso-8859-1"?>
<!-- Generator: Adobe Illustrator 19.0.0, SVG Export Plug-In . SVG Version: 6.00 Build 0)  -->
<svg xmlns="http://www.w3.org/2000/svg" xmlns:xlink="http://www.w3.org/1999/xlink" version="1.1" id="Capa_1" x="0px" y="0px" viewBox="0 0 51.072 51.072" style="enable-background:new 0 0 51.072 51.072;" xml:space="preserve">
<g>
	<g>
		<path d="M1.659,27.153c0,2.563,0.408,5.03,1.154,7.346l3.986-2.495c-0.401-1.551-0.615-3.177-0.615-4.851    c0-8.785,5.874-16.221,13.899-18.596V3.875C9.521,6.359,1.659,15.835,1.659,27.153z"/>
	</g>
</g>
<g>
	<g>
		<path d="M31.072,3.875v4.682c8.025,2.375,13.899,9.811,13.899,18.596c0,1.672-0.213,3.296-0.612,4.844l3.958,2.577    c0.762-2.337,1.179-4.83,1.179-7.421C49.497,15.835,41.633,6.359,31.072,3.875z"/>
	</g>
</g>
<g>
	<g>
		<path d="M38.695,41.422c-3.456,3.179-8.063,5.125-13.117,5.125c-5.053,0-9.66-1.945-13.116-5.123L8.505,43.9    c4.34,4.424,10.384,7.172,17.072,7.172c6.658,0,12.678-2.722,17.014-7.111L38.695,41.422z"/>
	</g>
</g>
<g>
	<g>
		<polygon points="37.927,31.664 40.939,26.947 28.047,27.921 32.591,40.025 35.492,35.48 47.615,43.376 50.086,39.584   "/>
	</g>
</g>
<g>
	<g>
		<polygon points="27.84,14.222 27.84,0 23.315,0 23.315,14.222 17.82,14.222 25.577,24.566 33.335,14.222   "/>
	</g>
</g>
<g>
	<g>
		<polygon points="10.349,27.189 13.27,31.767 0.987,39.454 3.387,43.291 15.705,35.581 18.697,40.268 23.24,28.164   "/>
	</g>
</g>
<g>
</g>
<g>
</g>
<g>
</g>
<g>
</g>
<g>
</g>
<g>
</g>
<g>
</g>
<g>
</g>
<g>
</g>
<g>
</g>
<g>
</g>
<g>
</g>
<g>
</g>
<g>
</g>
<g>
</g>
</svg>
