<?xml version="1.0" encoding="iso-8859-1"?>
<!-- Generator: Adobe Illustrator 19.0.0, SVG Export Plug-In . SVG Version: 6.00 Build 0)  -->
<svg xmlns="http://www.w3.org/2000/svg" xmlns:xlink="http://www.w3.org/1999/xlink" version="1.1" id="Capa_1" x="0px" y="0px" viewBox="0 0 55.597 55.597" style="enable-background:new 0 0 55.597 55.597;" xml:space="preserve">
<g>
	<g>
		<path d="M49.682,23.273l-16.634-5.381c0.562-0.858,0.894-1.886,0.893-2.984c0.001-1.502-0.614-2.875-1.599-3.858    c-0.615-0.617-1.385-1.089-2.243-1.354V7.758h2.224L34.264,0H22.626l1.939,7.758h2.301v4.925h1.616    c0.619,0.001,1.166,0.246,1.573,0.652c0.405,0.408,0.65,0.953,0.652,1.573c-0.001,0.619-0.246,1.165-0.652,1.573    c-0.122,0.122-0.26,0.222-0.405,0.313l-1.193-0.387l-1.186,0.363c-0.129-0.085-0.251-0.179-0.361-0.289    c-0.405-0.408-0.652-0.954-0.652-1.573h-3.232c-0.001,1.064,0.312,2.06,0.842,2.901L5.99,23.273H1.94v25.859    c0,3.556,2.909,6.465,6.465,6.465h38.788c3.556,0,6.465-2.909,6.465-6.465V23.273H49.682z M15.839,48.485h-3.233V30.384h3.233    V48.485z M29.415,48.485h-3.232V30.384h3.232V48.485z M17.05,23.273l10.09-3.084c0.432,0.11,0.88,0.175,1.343,0.175    c0.428,0,0.845-0.055,1.246-0.149l9.451,3.058H17.05z M42.991,48.485h-3.232V30.384h3.232V48.485z"/>
	</g>
</g>
<g>
</g>
<g>
</g>
<g>
</g>
<g>
</g>
<g>
</g>
<g>
</g>
<g>
</g>
<g>
</g>
<g>
</g>
<g>
</g>
<g>
</g>
<g>
</g>
<g>
</g>
<g>
</g>
<g>
</g>
</svg>
