<?xml version="1.0" encoding="iso-8859-1"?>
<!-- Generator: Adobe Illustrator 19.0.0, SVG Export Plug-In . SVG Version: 6.00 Build 0)  -->
<svg xmlns="http://www.w3.org/2000/svg" xmlns:xlink="http://www.w3.org/1999/xlink" version="1.1" id="Capa_1" x="0px" y="0px" viewBox="0 0 55.594 55.594" style="enable-background:new 0 0 55.594 55.594;" xml:space="preserve">
<g>
	<g>
		<circle cx="26.537" cy="8.08" r="8.08"/>
	</g>
</g>
<g>
	<g>
		<path d="M51.293,27.796v0.002c-0.937-3.062-2.683-5.847-5.039-8.187v-9.268c-3.154,0-5.898,1.739-7.336,4.309    c-0.826-0.365-1.678-0.693-2.555-0.979c-0.702,1.226-1.624,2.309-2.714,3.193c0.769,0.154,1.517,0.332,2.236,0.54l-0.899,3.105    c-2.214-0.641-4.784-1.013-7.524-1.012c-3.205-0.001-6.182,0.51-8.625,1.363l-1.064-3.052c0.667-0.233,1.364-0.439,2.083-0.622    c-1.096-0.807-2.041-1.806-2.788-2.947c-4.643,1.839-8.486,4.866-10.987,8.613c-0.092-0.064-0.18-0.13-0.262-0.199    c-0.345-0.287-0.599-0.608-0.762-0.93c-0.163-0.324-0.241-0.643-0.242-0.988H0.288c-0.001,1.082,0.268,2.123,0.733,3.036    c0.672,1.319,1.732,2.378,2.998,3.127c-0.698,1.919-1.078,3.955-1.078,6.067c0,5.948,2.985,11.307,7.759,15.08v7.547h8.404v-3.182    c2.621,0.803,5.45,1.242,8.403,1.242c2.953,0,5.782-0.44,8.404-1.243v3.183h8.404v-7.547c3.524-2.786,6.069-6.438,7.161-10.554    h3.829v-9.697H51.293z M42.698,28.444c-0.893,0-1.616-0.723-1.616-1.616s0.723-1.616,1.616-1.616s1.616,0.723,1.616,1.616    S43.592,28.444,42.698,28.444z"/>
	</g>
</g>
<g>
</g>
<g>
</g>
<g>
</g>
<g>
</g>
<g>
</g>
<g>
</g>
<g>
</g>
<g>
</g>
<g>
</g>
<g>
</g>
<g>
</g>
<g>
</g>
<g>
</g>
<g>
</g>
<g>
</g>
</svg>
