<?xml version="1.0" encoding="iso-8859-1"?>
<!-- Generator: Adobe Illustrator 19.0.0, SVG Export Plug-In . SVG Version: 6.00 Build 0)  -->
<svg xmlns="http://www.w3.org/2000/svg" xmlns:xlink="http://www.w3.org/1999/xlink" version="1.1" id="Capa_1" x="0px" y="0px" viewBox="0 0 49.132 49.132" style="enable-background:new 0 0 49.132 49.132;" xml:space="preserve">
<g>
	<g>
		<path d="M40.082,7.758c-4.998,0-9.051,3.905-9.051,8.728c0,4.818,9.051,14.545,9.051,14.545s9.05-9.727,9.05-14.545    C49.132,11.663,45.079,7.758,40.082,7.758z M40.082,20.04c-2.143,0-3.879-1.736-3.879-3.879c0-2.142,1.736-3.879,3.879-3.879    c2.142,0,3.879,1.736,3.879,3.879C43.961,18.305,42.224,20.04,40.082,20.04z"/>
	</g>
</g>
<g>
	<g>
		<path d="M7.112,0C3.543,0,0.647,2.82,0.647,6.303c0,3.481,6.465,10.505,6.465,10.505s6.465-7.025,6.465-10.505    C13.577,2.82,10.682,0,7.112,0z M7.111,8.404c-1.429,0-2.585-1.158-2.585-2.586c0-1.429,1.156-2.586,2.585-2.586    c1.429,0,2.586,1.157,2.586,2.586C9.698,7.246,8.54,8.404,7.111,8.404z"/>
	</g>
</g>
<g>
	<g>
		<path d="M42.807,32.844c-0.509,1.116-1.122,2.173-1.819,3.17c-1.804-1.023-3.998-1.837-6.486-2.437    c-2.495-0.599-5.284-0.972-8.244-1.076v-6.318h5.726c-0.729-1.047-1.428-2.137-2.039-3.232h-3.687v-6.317    c0.522-0.018,1.032-0.056,1.543-0.091c0-0.019-0.003-0.038-0.003-0.056c0-1.114,0.169-2.188,0.463-3.211    c-0.656,0.056-1.324,0.096-2.003,0.122V4.602c2.501,0.21,4.871,0.882,7.028,1.928c1.625-1.056,3.521-1.746,5.565-1.945    C34.824,1.703,29.896,0,24.566,0c-3.166,0-6.191,0.606-8.97,1.697c0.739,1.31,1.167,2.808,1.202,4.402    c1.939-0.819,4.034-1.341,6.227-1.508v8.813c-2.772-0.096-5.37-0.445-7.642-0.99c-0.241-0.058-0.465-0.124-0.698-0.186    c-0.588,0.978-1.245,1.935-1.909,2.824c0.597,0.182,1.215,0.35,1.853,0.504c2.537,0.608,5.379,0.984,8.396,1.082v6.311H4.597    c0.094-1.184,0.303-2.336,0.596-3.453l-0.46-0.499c-0.757-0.822-1.859-2.08-2.98-3.543c-1.126,2.818-1.752,5.891-1.752,9.112    c0,13.568,10.998,24.566,24.566,24.566c13.501,0,24.453-10.89,24.56-24.366C46.962,28.146,44.255,31.26,42.807,32.844z     M23.025,44.541c-4.997-0.382-9.484-2.608-12.787-5.992c1.389-0.715,3.141-1.351,5.146-1.83c2.272-0.546,4.87-0.895,7.641-0.99    V44.541z M14.631,33.576c-2.492,0.601-4.689,1.416-6.494,2.44c-1.98-2.832-3.248-6.197-3.541-9.835h18.429v6.313h0.001    C20.009,32.591,17.167,32.967,14.631,33.576z M26.258,44.529v-8.794c2.715,0.103,5.259,0.449,7.489,0.985    c2.003,0.478,3.752,1.113,5.141,1.827C35.618,41.897,31.194,44.114,26.258,44.529z"/>
	</g>
</g>
<g>
</g>
<g>
</g>
<g>
</g>
<g>
</g>
<g>
</g>
<g>
</g>
<g>
</g>
<g>
</g>
<g>
</g>
<g>
</g>
<g>
</g>
<g>
</g>
<g>
</g>
<g>
</g>
<g>
</g>
</svg>
