<?xml version="1.0" encoding="iso-8859-1"?>
<!-- Generator: Adobe Illustrator 19.0.0, SVG Export Plug-In . SVG Version: 6.00 Build 0)  -->
<svg xmlns="http://www.w3.org/2000/svg" xmlns:xlink="http://www.w3.org/1999/xlink" version="1.1" id="Capa_1" x="0px" y="0px" viewBox="0 0 49.778 49.778" style="enable-background:new 0 0 49.778 49.778;" xml:space="preserve">
<g>
	<g>
		<path d="M24.889,0C13.107,0,3.556,9.617,3.556,21.48c0,11.862,21.333,28.298,21.333,28.298S46.222,33.342,46.222,21.48    C46.222,9.617,36.669,0,24.889,0z M24.889,32.323c-6.071,0-10.99-4.92-10.99-10.99s4.919-10.99,10.99-10.99    c6.07,0,10.99,4.92,10.99,10.99S30.959,32.323,24.889,32.323z"/>
	</g>
</g>
<g>
	<g>
		<path d="M29.589,22.198c-0.297-0.542-0.711-0.974-1.145-1.294c-0.768-0.56-1.577-0.827-2.323-1.041    c-0.56-0.156-1.096-0.276-1.564-0.399c-0.35-0.091-0.661-0.184-0.908-0.281c-0.375-0.143-0.57-0.291-0.629-0.365l-0.066-0.112    c-0.016-0.05-0.039-0.136-0.039-0.295c0-0.102,0.02-0.233,0.067-0.354c0.072-0.184,0.177-0.339,0.395-0.484    c0.22-0.142,0.597-0.295,1.299-0.298c1.025-0.002,1.61,0.245,1.862,0.447c0.131,0.103,0.197,0.193,0.246,0.292    c0.047,0.1,0.078,0.22,0.08,0.397h3.232c0.001-0.61-0.126-1.227-0.396-1.791c-0.401-0.851-1.125-1.539-1.998-1.958    c-0.372-0.181-0.775-0.312-1.197-0.412v-1.237h-3.232v1.179c-0.266,0.058-0.526,0.128-0.769,0.22    c-0.967,0.364-1.718,1.016-2.174,1.749c-0.46,0.736-0.648,1.521-0.649,2.25c-0.004,0.734,0.18,1.459,0.547,2.05    c0.317,0.518,0.746,0.911,1.179,1.196c0.767,0.497,1.549,0.723,2.276,0.921c0.546,0.144,1.065,0.259,1.518,0.386    c0.338,0.094,0.637,0.192,0.874,0.294c0.36,0.155,0.544,0.307,0.629,0.418c0.044,0.058,0.076,0.113,0.106,0.204    c0.029,0.092,0.056,0.226,0.056,0.432c-0.001,0.297-0.056,0.442-0.103,0.533c-0.038,0.068-0.079,0.12-0.156,0.184    c-0.115,0.094-0.331,0.208-0.665,0.29c-0.331,0.083-0.768,0.132-1.263,0.131c-0.759-0.001-1.207-0.209-1.436-0.405    c-0.118-0.1-0.189-0.2-0.242-0.313c-0.052-0.113-0.083-0.245-0.085-0.42h-3.232c-0.001,0.61,0.125,1.216,0.378,1.766    c0.376,0.828,1.038,1.511,1.846,1.95c0.422,0.229,0.882,0.395,1.369,0.503v1.207h3.232v-1.233    c0.445-0.095,0.884-0.234,1.306-0.442c0.635-0.308,1.242-0.791,1.661-1.457c0.423-0.664,0.628-1.469,0.624-2.294    C30.1,23.55,29.931,22.816,29.589,22.198z"/>
	</g>
</g>
<g>
</g>
<g>
</g>
<g>
</g>
<g>
</g>
<g>
</g>
<g>
</g>
<g>
</g>
<g>
</g>
<g>
</g>
<g>
</g>
<g>
</g>
<g>
</g>
<g>
</g>
<g>
</g>
<g>
</g>
</svg>
