<?xml version="1.0" encoding="iso-8859-1"?>
<!-- Generator: Adobe Illustrator 19.0.0, SVG Export Plug-In . SVG Version: 6.00 Build 0)  -->
<svg xmlns="http://www.w3.org/2000/svg" xmlns:xlink="http://www.w3.org/1999/xlink" version="1.1" id="Capa_1" x="0px" y="0px" viewBox="0 0 58.18 58.18" style="enable-background:new 0 0 58.18 58.18;" xml:space="preserve">
<g>
	<g>
		<path d="M41.374,29.246L41.374,29.246l-3.676,3.88H0v9.697l3.045,6.962c0.021,0.017,1.904,1.548,2.96,1.755    c0.859,0.169,2.047-0.82,2.66-1.307c0.694-0.552,1.325-1.063,2.238-1.212c1.105-0.18,2.256,0.154,3.082,0.912v-0.001l0.006,0.005    l-0.001-0.001c0.72,0.639,1.919,1.648,2.945,1.615c1.032,0.028,2.22-0.965,2.945-1.614c0,0,2.181-2.184,4.972-0.001    c0.639,0.499,1.296,1.025,2.035,1.359c0.836,0.376,1.435,0.228,2.227-0.206c1.475-0.807,2.462-2.212,4.312-2.111    c1.711,0.092,2.703,1.517,4.144,2.233c0.814,0.405,1.385,0.394,2.196-0.012c0.66-0.332,1.283-0.769,1.833-1.262    c0,0,2.237-2.164,4.972-0.001c0.679,0.537,1.398,1.113,2.207,1.431c0.768,0.314,1.283,0.064,1.982-0.339    c0.632-0.364,1.228-0.791,1.799-1.25l5.621-12.774v-7.758H41.374z"/>
	</g>
</g>
<g>
	<g>
		<polygon points="45.899,18.904 45.899,11.146 34.909,11.146 34.909,18.904 25.859,18.904 25.859,29.894 25.86,29.894     36.308,29.894 39.984,26.015 54.95,26.015 54.95,18.904   "/>
	</g>
</g>
<g>
	<g>
		<polygon points="11.96,11.146 11.96,6.621 8.727,6.621 8.727,11.146 4.525,11.146 4.525,14.378 5.646,14.378 3.577,29.894     19.394,29.894 19.394,23.429 12.929,23.429 12.929,18.904 19.394,18.904 19.394,14.378 23.273,14.378 23.273,11.146   "/>
	</g>
</g>
<g>
</g>
<g>
</g>
<g>
</g>
<g>
</g>
<g>
</g>
<g>
</g>
<g>
</g>
<g>
</g>
<g>
</g>
<g>
</g>
<g>
</g>
<g>
</g>
<g>
</g>
<g>
</g>
<g>
</g>
</svg>
