<?xml version="1.0" encoding="iso-8859-1"?>
<!-- Generator: Adobe Illustrator 19.0.0, SVG Export Plug-In . SVG Version: 6.00 Build 0)  -->
<svg xmlns="http://www.w3.org/2000/svg" xmlns:xlink="http://www.w3.org/1999/xlink" version="1.1" id="Capa_1" x="0px" y="0px" viewBox="0 0 56.892 56.892" style="enable-background:new 0 0 56.892 56.892;" xml:space="preserve">
<g>
	<g>
		<circle cx="43.96" cy="44.931" r="4.525"/>
	</g>
</g>
<g>
	<g>
		<rect y="7.436" width="35.556" height="21.98"/>
	</g>
</g>
<g>
	<g>
		<circle cx="12.929" cy="44.931" r="4.525"/>
	</g>
</g>
<g>
	<g>
		<path d="M56.89,26.83H45.305l-0.052-7.758h10.411l-0.714-4.525H38.789v18.101H0.001H0l0.001,6.465    c0,3.122,2.244,5.745,5.198,6.338c-0.012-0.173-0.026-0.345-0.026-0.52c0-4.278,3.481-7.758,7.758-7.758    c4.277,0,7.758,3.48,7.758,7.758c0,0.218-0.015,0.432-0.033,0.646h15.581c-0.018-0.214-0.033-0.429-0.033-0.646    c0-4.278,3.481-7.758,7.758-7.758c4.277,0,7.758,3.48,7.758,7.758c0,0.175-0.014,0.347-0.026,0.52    c2.954-0.593,5.198-3.216,5.198-6.338L56.89,26.83z"/>
	</g>
</g>
<g>
</g>
<g>
</g>
<g>
</g>
<g>
</g>
<g>
</g>
<g>
</g>
<g>
</g>
<g>
</g>
<g>
</g>
<g>
</g>
<g>
</g>
<g>
</g>
<g>
</g>
<g>
</g>
<g>
</g>
</svg>
