<?xml version="1.0" encoding="iso-8859-1"?>
<!-- Generator: Adobe Illustrator 19.0.0, SVG Export Plug-In . SVG Version: 6.00 Build 0)  -->
<svg xmlns="http://www.w3.org/2000/svg" xmlns:xlink="http://www.w3.org/1999/xlink" version="1.1" id="Capa_1" x="0px" y="0px" viewBox="0 0 47.839 47.839" style="enable-background:new 0 0 47.839 47.839;" xml:space="preserve">
<g>
	<g>
		<path d="M39.111,7.758H23.596c-3.556,0-6.465,2.909-6.465,6.465V31.03l5.172-4.525h16.808c3.556,0,6.465-2.909,6.465-6.465v-5.818    C45.576,10.667,42.667,7.758,39.111,7.758z M26.181,21.98c-1.071,0-1.939-0.868-1.939-1.939c0-1.071,0.868-1.939,1.939-1.939    c1.072,0,1.94,0.868,1.94,1.939C28.121,21.112,27.253,21.98,26.181,21.98z M31.353,21.98c-1.071,0-1.939-0.868-1.939-1.939    c0-1.071,0.868-1.939,1.939-1.939c1.072,0,1.94,0.868,1.94,1.939C33.293,21.112,32.425,21.98,31.353,21.98z M36.525,21.98    c-1.071,0-1.939-0.868-1.939-1.939c0-1.071,0.868-1.939,1.939-1.939c1.072,0,1.94,0.868,1.94,1.939    C38.465,21.112,37.596,21.98,36.525,21.98z"/>
	</g>
</g>
<g>
	<g>
		<path d="M26.83,29.737v9.051H6.788V7.758h9.601c1.776-1.979,4.345-3.232,7.207-3.232h7.758V0H2.263v41.374    c0,3.556,2.909,6.465,6.465,6.465H24.89c3.556,0,6.465-2.909,6.465-6.465V29.737H26.83z"/>
	</g>
</g>
<g>
</g>
<g>
</g>
<g>
</g>
<g>
</g>
<g>
</g>
<g>
</g>
<g>
</g>
<g>
</g>
<g>
</g>
<g>
</g>
<g>
</g>
<g>
</g>
<g>
</g>
<g>
</g>
<g>
</g>
</svg>
