<?xml version="1.0" encoding="iso-8859-1"?>
<!-- Generator: Adobe Illustrator 19.0.0, SVG Export Plug-In . SVG Version: 6.00 Build 0)  -->
<svg xmlns="http://www.w3.org/2000/svg" xmlns:xlink="http://www.w3.org/1999/xlink" version="1.1" id="Capa_1" x="0px" y="0px" viewBox="0 0 47.839 47.839" style="enable-background:new 0 0 47.839 47.839;" xml:space="preserve">
<g>
	<g>
		<polygon points="14.223,0 17.489,10.343 30.349,10.343 33.617,0   "/>
	</g>
</g>
<g>
	<g>
		<path d="M46.062,37.723L30.569,13.576H17.27L1.776,37.723c-0.712,1.039-1.131,2.296-1.131,3.651c0,3.57,2.894,6.465,6.465,6.465    h33.62c3.57,0,6.465-2.894,6.465-6.465C47.194,40.018,46.773,38.761,46.062,37.723z M23.166,30.358h4.124v3.232h-4.18    c-0.015,0.532-0.032,1.074-0.048,1.593c-0.014,0.449-0.029,0.876-0.041,1.265h6.102v3.232H18.411v-3.232h1.374    c0.015-0.415,0.03-0.877,0.046-1.368c0.016-0.484,0.031-0.99,0.045-1.489h-1.465v-3.232h1.522    c-0.001-0.089-0.015-0.397-0.015-0.492c0-0.833,0.206-1.629,0.56-2.327c0.355-0.701,0.852-1.307,1.44-1.803    c1.177-0.991,2.722-1.57,4.379-1.572c1.131,0,2.202,0.277,3.128,0.763h0.001l-1.502,2.863c-0.47-0.246-1.023-0.393-1.627-0.393    c-0.667-0.001-1.303,0.18-1.82,0.478c-0.518,0.297-0.904,0.705-1.115,1.123c-0.141,0.281-0.211,0.563-0.213,0.868    C23.151,29.866,23.164,30.225,23.166,30.358z"/>
	</g>
</g>
<g>
</g>
<g>
</g>
<g>
</g>
<g>
</g>
<g>
</g>
<g>
</g>
<g>
</g>
<g>
</g>
<g>
</g>
<g>
</g>
<g>
</g>
<g>
</g>
<g>
</g>
<g>
</g>
<g>
</g>
</svg>
