<?xml version="1.0" encoding="iso-8859-1"?>
<!-- Generator: Adobe Illustrator 19.0.0, SVG Export Plug-In . SVG Version: 6.00 Build 0)  -->
<svg xmlns="http://www.w3.org/2000/svg" xmlns:xlink="http://www.w3.org/1999/xlink" version="1.1" id="Capa_1" x="0px" y="0px" viewBox="0 0 47.839 47.839" style="enable-background:new 0 0 47.839 47.839;" xml:space="preserve">
<g>
	<g>
		<polygon points="14.223,0 17.489,10.343 30.349,10.343 33.617,0   "/>
	</g>
</g>
<g>
	<g>
		<path d="M46.062,37.723L30.569,13.576H17.27L1.776,37.723c-0.712,1.039-1.131,2.296-1.131,3.651c0,3.57,2.894,6.465,6.465,6.465    h33.62c3.57,0,6.465-2.894,6.465-6.465C47.194,40.018,46.773,38.761,46.062,37.723z M25.867,40.404    c-2.148,0.001-4.106-0.875-5.51-2.282c-1.408-1.405-2.283-3.363-2.281-5.508c-0.001-2.146,0.874-4.104,2.281-5.509    c1.404-1.408,3.362-2.284,5.51-2.283c1.421-0.001,2.757,0.391,3.894,1.051l-1.619,2.798c-0.678-0.391-1.448-0.616-2.276-0.616    c-1.265,0.001-2.394,0.508-3.225,1.336c-0.403,0.405-0.729,0.881-0.957,1.409h4.986v3.232h-5.136    c0.226,0.687,0.606,1.303,1.109,1.806c0.831,0.828,1.959,1.334,3.225,1.336c0.829-0.001,1.599-0.224,2.275-0.614l1.62,2.797    C28.622,40.015,27.286,40.405,25.867,40.404z"/>
	</g>
</g>
<g>
</g>
<g>
</g>
<g>
</g>
<g>
</g>
<g>
</g>
<g>
</g>
<g>
</g>
<g>
</g>
<g>
</g>
<g>
</g>
<g>
</g>
<g>
</g>
<g>
</g>
<g>
</g>
<g>
</g>
</svg>
