<?xml version="1.0" encoding="iso-8859-1"?>
<!-- Generator: Adobe Illustrator 19.0.0, SVG Export Plug-In . SVG Version: 6.00 Build 0)  -->
<svg xmlns="http://www.w3.org/2000/svg" xmlns:xlink="http://www.w3.org/1999/xlink" version="1.1" id="Capa_1" x="0px" y="0px" viewBox="0 0 54.304 54.304" style="enable-background:new 0 0 54.304 54.304;" xml:space="preserve">
<g>
	<g>
		<path d="M0,5.496v29.737c0,3.556,2.909,6.465,6.465,6.465h14.869v3.879h-7.758v3.232h27.152v-3.232H32.97v-3.879h14.869    c3.556,0,6.465-2.909,6.465-6.465V5.496H0z M49.778,32.647H4.525V10.021h45.253V32.647z"/>
	</g>
</g>
<g>
	<g>
		<path d="M34.948,13.254h-5.21h-0.001c-3.214,0-5.818,2.605-5.818,5.818c0,0.054,0,0.269,0,0.323c0,3.283,2.578,5.966,5.819,6.135    l7.295,0.006l3.695,3.233V18.425C40.405,15.516,37.942,13.254,34.948,13.254z"/>
	</g>
</g>
<g>
	<g>
		<path d="M20.687,19.394c0-1.259,0.253-2.458,0.705-3.556c0,0-2.212,0-2.321,0c-2.925,0-5.31,2.288-5.479,5.171h-0.016v3.879v2.585    v3.233l3.695-3.233h2.123v0.001h3.879v-0.001h0.001c0.577,0,1.134-0.087,1.66-0.244C22.379,25.556,20.687,22.67,20.687,19.394z"/>
	</g>
</g>
<g>
</g>
<g>
</g>
<g>
</g>
<g>
</g>
<g>
</g>
<g>
</g>
<g>
</g>
<g>
</g>
<g>
</g>
<g>
</g>
<g>
</g>
<g>
</g>
<g>
</g>
<g>
</g>
<g>
</g>
</svg>
