<?xml version="1.0" encoding="iso-8859-1"?>
<!-- Generator: Adobe Illustrator 19.0.0, SVG Export Plug-In . SVG Version: 6.00 Build 0)  -->
<svg xmlns="http://www.w3.org/2000/svg" xmlns:xlink="http://www.w3.org/1999/xlink" version="1.1" id="Capa_1" x="0px" y="0px" viewBox="0 0 54.304 54.304" style="enable-background:new 0 0 54.304 54.304;" xml:space="preserve">
<g>
	<g>
		<path d="M0,5.496v29.737c0,3.556,2.909,6.465,6.465,6.465h14.869v3.879h-7.758v3.232h27.152v-3.232H32.97v-3.879h14.869    c3.556,0,6.465-2.909,6.465-6.465V5.496H0z M49.778,32.647H4.525V10.021h45.253V32.647z"/>
	</g>
</g>
<g>
	<g>
		<path d="M33.616,24.889v-5.386c0-3.809-2.896-6.896-6.465-6.896c-3.57,0-6.465,3.088-6.465,6.896v5.386H18.1v3.232h6.556    c0.288,1.113,1.29,1.939,2.494,1.939c1.201,0,2.204-0.827,2.493-1.939H36.2v-3.232H33.616z"/>
	</g>
</g>
<g>
</g>
<g>
</g>
<g>
</g>
<g>
</g>
<g>
</g>
<g>
</g>
<g>
</g>
<g>
</g>
<g>
</g>
<g>
</g>
<g>
</g>
<g>
</g>
<g>
</g>
<g>
</g>
<g>
</g>
</svg>
