<?xml version="1.0" encoding="iso-8859-1"?>
<!-- Generator: Adobe Illustrator 19.0.0, SVG Export Plug-In . SVG Version: 6.00 Build 0)  -->
<svg xmlns="http://www.w3.org/2000/svg" xmlns:xlink="http://www.w3.org/1999/xlink" version="1.1" id="Capa_1" x="0px" y="0px" viewBox="0 0 54.304 54.304" style="enable-background:new 0 0 54.304 54.304;" xml:space="preserve">
<g>
	<g>
		<path d="M0,5.496v29.737c0,3.556,2.909,6.465,6.465,6.465h14.869v3.879h-7.758v3.232h27.152v-3.232H32.97v-3.879h14.869    c3.556,0,6.465-2.909,6.465-6.465V5.496H0z M49.778,32.647H4.525V10.021h45.253V32.647z"/>
	</g>
</g>
<g>
	<g>
		<path d="M27.151,11.961c-4.998,0-9.05,4.053-9.05,9.05s4.052,9.051,9.05,9.051s9.051-4.053,9.051-9.051    C36.202,16.014,32.15,11.961,27.151,11.961z M25.535,23.274V14.87h3.232l-0.001,5.172h3.556v3.232H25.535z"/>
	</g>
</g>
<g>
</g>
<g>
</g>
<g>
</g>
<g>
</g>
<g>
</g>
<g>
</g>
<g>
</g>
<g>
</g>
<g>
</g>
<g>
</g>
<g>
</g>
<g>
</g>
<g>
</g>
<g>
</g>
<g>
</g>
</svg>
