<?xml version="1.0" encoding="iso-8859-1"?>
<!-- Generator: Adobe Illustrator 19.0.0, SVG Export Plug-In . SVG Version: 6.00 Build 0)  -->
<svg xmlns="http://www.w3.org/2000/svg" xmlns:xlink="http://www.w3.org/1999/xlink" version="1.1" id="Capa_1" x="0px" y="0px" viewBox="0 0 55.597 55.597" style="enable-background:new 0 0 55.597 55.597;" xml:space="preserve">
<g>
	<g>
		<path d="M29.577,4.527c-9.998,0-18.101,8.103-18.101,18.101s8.103,18.101,18.101,18.101c9.998,0,18.101-8.103,18.101-18.101    S39.573,4.527,29.577,4.527z M28.016,36.106c-2.859-0.329-5.443-1.553-7.48-3.38c0.714-0.274,1.508-0.524,2.375-0.73    c1.522-0.366,3.256-0.607,5.105-0.697V36.106z M28.016,28.067c-2.095,0.092-4.077,0.359-5.86,0.787    c-1.42,0.342-2.717,0.778-3.864,1.31c-1.162-1.734-1.926-3.75-2.186-5.92h11.91V28.067z M28.016,21.011h-11.91    c0.259-2.17,1.025-4.186,2.186-5.919c1.146,0.533,2.443,0.968,3.864,1.31c1.783,0.427,3.764,0.693,5.86,0.785V21.011z     M28.016,13.957c-1.849-0.09-3.583-0.332-5.106-0.697c-0.868-0.206-1.661-0.456-2.376-0.729c2.038-1.828,4.622-3.053,7.482-3.381    V13.957z M31.247,9.166c2.815,0.348,5.359,1.561,7.37,3.364c-0.713,0.274-1.508,0.523-2.375,0.73    c-1.493,0.359-3.186,0.6-4.995,0.694V9.166z M31.247,17.185c2.054-0.096,3.996-0.363,5.748-0.782    c1.421-0.342,2.718-0.778,3.865-1.31c1.162,1.734,1.927,3.75,2.186,5.919H31.247V17.185z M31.247,36.09v-4.787    c1.807,0.094,3.501,0.336,4.993,0.694c0.867,0.207,1.661,0.456,2.375,0.731C36.606,34.529,34.063,35.741,31.247,36.09z     M40.859,30.164c-1.146-0.532-2.442-0.968-3.863-1.31c-1.752-0.42-3.694-0.687-5.748-0.784v-3.826h11.799    C42.786,26.414,42.021,28.431,40.859,30.164z"/>
	</g>
</g>
<g>
	<g>
		<path d="M46.49,36.341l-1.6,1.6c-4.236,4.234-9.764,6.341-15.313,6.344c-5.55-0.003-11.078-2.111-15.313-6.344    c-4.234-4.236-6.341-9.764-6.344-15.313c0.003-5.55,2.11-11.079,6.344-15.313l1.601-1.601L10.148,0L6.948,3.201l2.588,2.587    c-4.088,4.855-6.145,10.854-6.143,16.84c-0.003,6.693,2.561,13.406,7.67,18.513c3.951,3.953,8.866,6.374,13.988,7.27v2.661h-7.758    v4.525h24.566v-4.525h-7.758v-2.661c4.423-0.773,8.688-2.689,12.315-5.743l2.588,2.588l3.199-3.199L46.49,36.341z"/>
	</g>
</g>
<g>
</g>
<g>
</g>
<g>
</g>
<g>
</g>
<g>
</g>
<g>
</g>
<g>
</g>
<g>
</g>
<g>
</g>
<g>
</g>
<g>
</g>
<g>
</g>
<g>
</g>
<g>
</g>
<g>
</g>
</svg>
