<?xml version="1.0" encoding="iso-8859-1"?>
<!-- Generator: Adobe Illustrator 19.0.0, SVG Export Plug-In . SVG Version: 6.00 Build 0)  -->
<svg xmlns="http://www.w3.org/2000/svg" xmlns:xlink="http://www.w3.org/1999/xlink" version="1.1" id="Capa_1" x="0px" y="0px" viewBox="0 0 51.071 51.071" style="enable-background:new 0 0 51.071 51.071;" xml:space="preserve">
<g>
	<g>
		<path d="M32.97,33.616v-4.998c0-4.38-3.329-7.931-7.434-7.931c-4.107,0-7.434,3.55-7.434,7.931v4.998h-2.586v3.232h6.481    c0.164,1.809,1.683,3.232,3.539,3.232c1.852,0,3.375-1.423,3.539-3.232h6.481v-3.232H32.97z"/>
	</g>
</g>
<g>
	<g>
		<rect x="33.616" y="3.232" width="6.465" height="6.465"/>
	</g>
</g>
<g>
	<g>
		<rect x="10.99" y="3.232" width="6.465" height="6.465"/>
	</g>
</g>
<g>
	<g>
		<path d="M43.313,7.758v5.172H30.384V7.758h-9.697v5.172H7.758V7.758H0v33.616c0,3.556,2.909,6.465,6.465,6.465h38.141    c3.556,0,6.465-2.909,6.465-6.465V7.758H43.313z M46.546,41.374h-0.001c0,1.051-0.888,1.939-1.939,1.939H6.465    c-1.051,0-1.939-0.888-1.939-1.939V16.808h42.02V41.374z"/>
	</g>
</g>
<g>
</g>
<g>
</g>
<g>
</g>
<g>
</g>
<g>
</g>
<g>
</g>
<g>
</g>
<g>
</g>
<g>
</g>
<g>
</g>
<g>
</g>
<g>
</g>
<g>
</g>
<g>
</g>
<g>
</g>
</svg>
