<?xml version="1.0" encoding="iso-8859-1"?>
<!-- Generator: Adobe Illustrator 19.0.0, SVG Export Plug-In . SVG Version: 6.00 Build 0)  -->
<svg xmlns="http://www.w3.org/2000/svg" xmlns:xlink="http://www.w3.org/1999/xlink" version="1.1" id="Capa_1" x="0px" y="0px" viewBox="0 0 53.017 53.017" style="enable-background:new 0 0 53.017 53.017;" xml:space="preserve">
<g>
	<g>
		<path d="M0,4.852v32.97c0,3.556,2.909,6.465,6.465,6.465H8.41v-4.525H6.465c-1.052,0-1.939-0.888-1.939-1.939v-6.929l8.054-6.11    c0.643,0.473,1.435,0.756,2.294,0.756c1.077,0,2.051-0.439,2.754-1.147l5.019,2.788c-0.008,0.098-0.015,0.197-0.015,0.298    c0,2.142,1.736,3.879,3.879,3.879c2.144,0,3.879-1.736,3.879-3.879c0-0.514-0.102-1.004-0.284-1.453l5.935-6.284    c0.607,0.394,1.33,0.625,2.107,0.625c0.831,0,1.6-0.264,2.231-0.708l8.112,5.316v12.847c0,1.051-0.888,1.939-1.939,1.939h-1.939    v4.525h1.939c3.556,0,6.465-2.909,6.465-6.465V4.852H0z M48.49,21.109l-6.483-4.247c0.013-0.123,0.019-0.248,0.019-0.374    c0-2.142-1.736-3.879-3.879-3.879c-2.143,0-3.879,1.736-3.879,3.879c0,0.135,0.008,0.269,0.02,0.4l-6.534,6.918    c-0.391-0.132-0.808-0.207-1.244-0.207c-0.86,0-1.65,0.283-2.294,0.756l-5.481-3.045c-0.177-1.979-1.836-3.529-3.861-3.529    c-2.142,0-3.879,1.736-3.879,3.879c0,0.087,0.008,0.172,0.013,0.257l-6.482,4.918V9.377H48.49V21.109z"/>
	</g>
</g>
<g>
	<g>
		<polygon points="18.106,32.65 10.995,41.673 15.844,41.673 15.844,48.165 20.369,48.165 20.369,41.673 25.217,41.673   "/>
	</g>
</g>
<g>
	<g>
		<polygon points="37.177,39.141 37.177,32.65 32.652,32.65 32.652,39.141 27.803,39.141 34.914,48.164 42.025,39.141   "/>
	</g>
</g>
<g>
</g>
<g>
</g>
<g>
</g>
<g>
</g>
<g>
</g>
<g>
</g>
<g>
</g>
<g>
</g>
<g>
</g>
<g>
</g>
<g>
</g>
<g>
</g>
<g>
</g>
<g>
</g>
<g>
</g>
</svg>
