<?xml version="1.0" encoding="iso-8859-1"?>
<!-- Generator: Adobe Illustrator 19.0.0, SVG Export Plug-In . SVG Version: 6.00 Build 0)  -->
<svg xmlns="http://www.w3.org/2000/svg" xmlns:xlink="http://www.w3.org/1999/xlink" version="1.1" id="Capa_1" x="0px" y="0px" viewBox="0 0 45.899 45.899" style="enable-background:new 0 0 45.899 45.899;" xml:space="preserve">
<g>
	<g>
		<path d="M4.202,0v39.434c0,3.556,2.909,6.465,6.465,6.465h24.566c3.556,0,6.465-2.909,6.465-6.465V0H4.202z M9.374,5.172h27.152    v10.99H9.374V5.172z M17.133,38.788H9.375v-4.525h7.758V38.788z M17.133,32.323H9.375v-4.525h7.758V32.323z M17.133,25.859H9.375    v-4.525h7.758V25.859z M26.83,38.788h-7.758v-4.525h7.758V38.788z M26.83,32.323h-7.758v-4.525h7.758V32.323z M26.831,25.859    h-7.758v-4.525h7.758V25.859z M36.526,38.788h-7.758v-4.525h7.758V38.788z M36.526,32.323h-7.758v-4.525h7.758V32.323z     M36.528,25.859H28.77v-4.525h7.758V25.859z"/>
	</g>
</g>
<g>
</g>
<g>
</g>
<g>
</g>
<g>
</g>
<g>
</g>
<g>
</g>
<g>
</g>
<g>
</g>
<g>
</g>
<g>
</g>
<g>
</g>
<g>
</g>
<g>
</g>
<g>
</g>
<g>
</g>
</svg>
