<?xml version="1.0" encoding="iso-8859-1"?>
<!-- Generator: Adobe Illustrator 19.0.0, SVG Export Plug-In . SVG Version: 6.00 Build 0)  -->
<svg xmlns="http://www.w3.org/2000/svg" xmlns:xlink="http://www.w3.org/1999/xlink" version="1.1" id="Capa_1" x="0px" y="0px" viewBox="0 0 55.596 55.596" style="enable-background:new 0 0 55.596 55.596;" xml:space="preserve">
<g>
	<g>
		<path d="M0,5.468V32.62c0,3.556,2.909,6.465,6.465,6.465h13.884l1.027-2.519l0.246-0.604l0.462-0.462l10.442-10.443l-3.691-3.562    l9.703-10.056c0.593-0.619,1.307-1.096,2.064-1.409c0.757-0.314,1.555-0.469,2.352-0.469c0.769,0,1.541,0.145,2.274,0.437    c0.716,0.285,1.396,0.72,1.976,1.278c1.008-0.418,2.097-0.637,3.221-0.637V5.468H0z M18.747,23.247H7.111v-3.232h11.636V23.247z     M28.444,15.489H7.111v-3.232h21.333V15.489z"/>
	</g>
</g>
<g>
	<g>
		<path d="M54.081,15.388c-1.01-1.01-2.333-1.515-3.657-1.515c-1.319,0-2.64,0.503-3.649,1.507l-1.793-1.757    c-0.568-0.557-1.316-0.833-2.045-0.832c-0.739-0.001-1.496,0.282-2.067,0.855l-7.8,7.8l2.285,2.285l7.584-7.584l1.55,1.519    l-20.121,20.12L19.34,50.128l12.401-5.086L54.072,22.71l0.01-0.009C56.101,20.681,56.101,17.407,54.081,15.388z M51.825,20.385    l-0.039,0.039l-3.191,3.191l-2.743-2.742l3.201-3.2c0.365-0.366,0.853-0.568,1.37-0.568c0.518,0,1.005,0.202,1.371,0.568    C52.541,18.419,52.552,19.627,51.825,20.385z"/>
	</g>
</g>
<g>
</g>
<g>
</g>
<g>
</g>
<g>
</g>
<g>
</g>
<g>
</g>
<g>
</g>
<g>
</g>
<g>
</g>
<g>
</g>
<g>
</g>
<g>
</g>
<g>
</g>
<g>
</g>
<g>
</g>
</svg>
