<?xml version="1.0" encoding="iso-8859-1"?>
<!-- Generator: Adobe Illustrator 19.0.0, SVG Export Plug-In . SVG Version: 6.00 Build 0)  -->
<svg xmlns="http://www.w3.org/2000/svg" xmlns:xlink="http://www.w3.org/1999/xlink" version="1.1" id="Capa_1" x="0px" y="0px" viewBox="0 0 55.472 55.472" style="enable-background:new 0 0 55.472 55.472;" xml:space="preserve">
<g>
	<g>
		<path d="M50.198,40.286c1.406-3.166,2.198-6.669,2.197-10.349c0.001-5.488-1.738-10.59-4.693-14.752    c-2.953-4.164-7.121-7.402-11.995-9.203l-1.568,4.245c4.004,1.478,7.441,4.148,9.872,7.576c2.431,3.431,3.857,7.605,3.859,12.135    c-0.001,2.797-0.549,5.455-1.537,7.89l-4.185-2.661l1.143,11.454l10.857-3.82L50.198,40.286z"/>
	</g>
</g>
<g>
	<g>
		<path d="M39.261,46.895c-3.482,2.548-7.755,4.052-12.402,4.053c-3.791-0.001-7.331-0.999-10.398-2.749    c-2.179-1.244-4.11-2.874-5.712-4.786l4.075-2.303L4.181,36.73L2.445,48.107l4.312-2.438c2.041,2.606,4.57,4.808,7.462,6.459    c3.726,2.128,8.05,3.345,12.642,3.344c5.633,0.001,10.855-1.834,15.076-4.928L39.261,46.895z"/>
	</g>
</g>
<g>
	<g>
		<path d="M22.593,0l0.037,4.758c-5.355,0.894-10.157,3.451-13.827,7.124c-4.618,4.613-7.48,11.012-7.479,18.056    c0,1.259,0.1,2.484,0.273,3.673l4.479-0.648c-0.145-1.001-0.226-2.007-0.226-3.025c0.001-5.809,2.348-11.047,6.154-14.856    c2.867-2.864,6.543-4.9,10.661-5.734l0.038,4.874l8.994-7.181L22.593,0z"/>
	</g>
</g>
<g>
	<g>
		<path d="M26.86,19.594c-5.713,0-10.343,4.631-10.343,10.343c0,5.712,4.631,10.343,10.343,10.343    c5.713,0,10.343-4.631,10.343-10.343C37.204,24.226,32.572,19.594,26.86,19.594z M24.59,32.2v-9.374h3.232l-0.001,6.141h4.856    V32.2H24.59z"/>
	</g>
</g>
<g>
</g>
<g>
</g>
<g>
</g>
<g>
</g>
<g>
</g>
<g>
</g>
<g>
</g>
<g>
</g>
<g>
</g>
<g>
</g>
<g>
</g>
<g>
</g>
<g>
</g>
<g>
</g>
<g>
</g>
</svg>
