<?xml version="1.0" encoding="iso-8859-1"?>
<!-- Generator: Adobe Illustrator 19.0.0, SVG Export Plug-In . SVG Version: 6.00 Build 0)  -->
<svg xmlns="http://www.w3.org/2000/svg" xmlns:xlink="http://www.w3.org/1999/xlink" version="1.1" id="Capa_1" x="0px" y="0px" viewBox="0 0 51.064 51.064" style="enable-background:new 0 0 51.064 51.064;" xml:space="preserve">
<g>
	<g>
		<path d="M34.016,44.754c-2.696,1.188-5.594,1.785-8.493,1.785c-5.382-0.003-10.742-2.043-14.849-6.148    c-4.106-4.108-6.147-9.468-6.15-14.852c0.001-4.154,1.225-8.295,3.668-11.858l3.397,3.396L12.96,5.649L1.533,7.02l3.418,3.418    c-3.294,4.48-4.953,9.795-4.951,15.1c-0.003,6.525,2.493,13.072,7.475,18.051c4.979,4.98,11.524,7.476,18.049,7.474    c3.518,0,7.037-0.723,10.318-2.17L34.016,44.754z"/>
	</g>
</g>
<g>
	<g>
		<path d="M51.064,25.527c0.003-6.525-2.495-13.072-7.475-18.05C38.61,2.496,32.065,0,25.54,0.001    c-3.525,0-7.051,0.725-10.337,2.178l1.831,4.139c2.698-1.194,5.602-1.791,8.506-1.791c5.382,0.003,10.742,2.044,14.849,6.149    c4.105,4.108,6.147,9.468,6.15,14.851c-0.001,4.155-1.225,8.296-3.669,11.859l-3.396-3.396l-1.371,11.428l11.428-1.371    l-3.418-3.418C49.407,36.147,51.065,30.832,51.064,25.527z"/>
	</g>
</g>
<g>
	<g>
		<path d="M32.723,28.115v-5.344c0-4.189-3.185-7.586-7.111-7.586c-3.928,0-7.111,3.396-7.111,7.586v5.344h-2.586v3.232h6.465    c0,1.783,1.445,3.232,3.232,3.232c1.782,0,3.232-1.449,3.232-3.232h6.465v-3.232H32.723z"/>
	</g>
</g>
<g>
</g>
<g>
</g>
<g>
</g>
<g>
</g>
<g>
</g>
<g>
</g>
<g>
</g>
<g>
</g>
<g>
</g>
<g>
</g>
<g>
</g>
<g>
</g>
<g>
</g>
<g>
</g>
<g>
</g>
</svg>
