<?xml version="1.0" encoding="iso-8859-1"?>
<!-- Generator: Adobe Illustrator 19.0.0, SVG Export Plug-In . SVG Version: 6.00 Build 0)  -->
<svg xmlns="http://www.w3.org/2000/svg" xmlns:xlink="http://www.w3.org/1999/xlink" version="1.1" id="Capa_1" x="0px" y="0px" viewBox="0 0 51.071 51.071" style="enable-background:new 0 0 51.071 51.071;" xml:space="preserve">
<g>
	<g>
		<path d="M40.081,26.181v0.001c-1.778,0-3.232,1.455-3.232,3.232v0.646c0,1.778,1.455,3.232,3.232,3.232h10.99v-7.111H40.081z"/>
	</g>
</g>
<g>
	<g>
		<path d="M40.081,22.95h7.758v-8.404H5.818v-3.232h42.02v-0.001V6.141H6.465C2.909,6.141,0,9.051,0,12.606v25.859    c0,3.556,2.909,6.465,6.465,6.465h34.909c3.556,0,6.465-2.909,6.465-6.465v-1.939h-7.758c-3.565,0-6.465-2.9-6.465-6.465v-0.646    C33.616,25.85,36.516,22.95,40.081,22.95z"/>
	</g>
</g>
<g>
</g>
<g>
</g>
<g>
</g>
<g>
</g>
<g>
</g>
<g>
</g>
<g>
</g>
<g>
</g>
<g>
</g>
<g>
</g>
<g>
</g>
<g>
</g>
<g>
</g>
<g>
</g>
<g>
</g>
</svg>
