<?xml version="1.0" encoding="iso-8859-1"?>
<!-- Generator: Adobe Illustrator 19.0.0, SVG Export Plug-In . SVG Version: 6.00 Build 0)  -->
<svg xmlns="http://www.w3.org/2000/svg" xmlns:xlink="http://www.w3.org/1999/xlink" version="1.1" id="Capa_1" x="0px" y="0px" viewBox="0 0 47.839 47.839" style="enable-background:new 0 0 47.839 47.839;" xml:space="preserve">
<g>
	<g>
		<path d="M46.062,37.723L30.569,13.576H17.27L1.776,37.723c-0.712,1.039-1.131,2.296-1.131,3.651c0,3.57,2.894,6.465,6.465,6.465    h33.62c3.57,0,6.465-2.894,6.465-6.465C47.194,40.018,46.773,38.761,46.062,37.723z M21.682,29.432    c0.026,0.071,0.051,0.112,0.098,0.167c0.086,0.105,0.319,0.275,0.738,0.436c0.275,0.107,0.619,0.209,1.002,0.31    c0.512,0.134,1.093,0.263,1.698,0.432c0.804,0.23,1.669,0.517,2.479,1.109c0.46,0.337,0.894,0.792,1.206,1.361    c0.36,0.649,0.538,1.42,0.535,2.228c0.003,0.875-0.212,1.722-0.656,2.418c-0.44,0.699-1.078,1.208-1.749,1.533    c-0.449,0.22-0.918,0.369-1.394,0.471c-0.034,0.008-0.069,0.009-0.103,0.015v1.46h-3.232v-1.429    c-0.557-0.114-1.084-0.292-1.561-0.552c-0.854-0.464-1.549-1.182-1.945-2.055c-0.266-0.579-0.398-1.217-0.398-1.861h3.232    c0.001,0.21,0.041,0.374,0.105,0.517c0.066,0.142,0.158,0.267,0.3,0.389c0.279,0.238,0.8,0.471,1.65,0.473    c0.547,0.001,1.032-0.052,1.407-0.147c0.378-0.094,0.632-0.225,0.776-0.342c0.098-0.081,0.156-0.151,0.206-0.243    c0.065-0.122,0.127-0.304,0.129-0.646c0-0.236-0.031-0.396-0.067-0.511c-0.038-0.116-0.08-0.19-0.138-0.266    c-0.111-0.146-0.335-0.322-0.738-0.496c-0.265-0.116-0.596-0.224-0.968-0.327c-0.497-0.138-1.062-0.264-1.651-0.419    c-0.785-0.212-1.622-0.457-2.431-0.982c-0.458-0.301-0.908-0.713-1.239-1.255c-0.384-0.619-0.578-1.378-0.574-2.155    c0.001-0.767,0.2-1.596,0.684-2.37c0.479-0.772,1.27-1.46,2.294-1.845c0.292-0.111,0.603-0.194,0.927-0.258v-1.393h3.232v1.453    c0.49,0.108,0.954,0.258,1.38,0.466c0.924,0.445,1.683,1.168,2.107,2.062c0.284,0.592,0.418,1.242,0.417,1.886h-3.232    c-0.001-0.211-0.04-0.363-0.1-0.492c-0.063-0.128-0.149-0.242-0.308-0.367c-0.308-0.245-0.976-0.518-2.112-0.516    c-0.785,0.003-1.223,0.175-1.488,0.346c-0.264,0.175-0.396,0.369-0.486,0.594c-0.057,0.148-0.082,0.307-0.081,0.435    C21.632,29.251,21.658,29.361,21.682,29.432z"/>
	</g>
</g>
<g>
	<g>
		<polygon points="14.221,0 17.489,10.343 30.349,10.343 33.616,0   "/>
	</g>
</g>
<g>
</g>
<g>
</g>
<g>
</g>
<g>
</g>
<g>
</g>
<g>
</g>
<g>
</g>
<g>
</g>
<g>
</g>
<g>
</g>
<g>
</g>
<g>
</g>
<g>
</g>
<g>
</g>
<g>
</g>
</svg>
