<?xml version="1.0" encoding="iso-8859-1"?>
<!-- Generator: Adobe Illustrator 19.0.0, SVG Export Plug-In . SVG Version: 6.00 Build 0)  -->
<svg xmlns="http://www.w3.org/2000/svg" xmlns:xlink="http://www.w3.org/1999/xlink" version="1.1" id="Capa_1" x="0px" y="0px" viewBox="0 0 49.132 49.132" style="enable-background:new 0 0 49.132 49.132;" xml:space="preserve">
<g>
	<g>
		<path d="M24.566,0C10.997,0,0,10.999,0,24.566c0,13.567,10.997,24.566,24.566,24.566c13.569,0,24.566-10.999,24.566-24.566    C49.132,10.999,38.134,0,24.566,0z M44.536,22.95h-9.654c-0.094-3.062-0.447-5.962-1.017-8.584c0.471-0.088,0.935-0.18,1.39-0.281    c1.919-0.424,3.692-0.959,5.291-1.596C42.786,15.445,44.222,19.041,44.536,22.95z M38.21,9.906    c-1.122,0.387-2.342,0.734-3.652,1.021c-0.493,0.109-1.003,0.207-1.518,0.299c-0.708-2.272-1.591-4.247-2.606-5.823    C33.369,6.304,36.018,7.864,38.21,9.906z M17.484,22.951L17.484,22.951c0.097-3.006,0.46-5.73,0.992-8.106    c1.946,0.225,3.983,0.348,6.088,0.348c2.106,0,4.144-0.123,6.092-0.348c0.532,2.376,0.895,5.101,0.992,8.106H17.484z     M31.648,26.182c-0.097,3.005-0.46,5.73-0.992,8.106c-1.947-0.226-3.986-0.348-6.092-0.348c-2.105,0-4.142,0.123-6.088,0.348    c-0.533-2.377-0.895-5.101-0.992-8.106H31.648z M24.566,4.525c1.626,0,3.728,2.64,5.224,7.165    c-1.672,0.175-3.423,0.269-5.227,0.269c-1.802,0-3.552-0.094-5.222-0.27C20.838,7.165,22.94,4.525,24.566,4.525z M18.696,5.404    c-1.015,1.577-1.898,3.552-2.605,5.823c-0.574-0.103-1.138-0.213-1.683-0.336c-1.248-0.281-2.412-0.614-3.487-0.985    C13.114,7.864,15.761,6.305,18.696,5.404z M8.586,12.487c1.55,0.617,3.26,1.14,5.111,1.558c0.512,0.116,1.038,0.22,1.57,0.319    c-0.57,2.623-0.924,5.523-1.017,8.586H4.596C4.909,19.04,6.346,15.445,8.586,12.487z M4.596,26.182h9.654    c0.094,3.062,0.448,5.962,1.018,8.584c-0.475,0.089-0.943,0.182-1.402,0.283c-1.915,0.423-3.684,0.958-5.28,1.594    C6.345,33.686,4.909,30.09,4.596,26.182z M10.92,39.225c1.12-0.387,2.337-0.732,3.643-1.02c0.496-0.11,1.009-0.208,1.528-0.302    c0.708,2.272,1.59,4.247,2.605,5.824C15.761,42.827,13.113,41.268,10.92,39.225z M24.566,44.606c-1.626,0-3.729-2.64-5.225-7.165    c1.67-0.175,3.42-0.269,5.222-0.269c1.804,0,3.555,0.094,5.227,0.269C28.294,41.966,26.192,44.606,24.566,44.606z M30.434,43.728    c1.015-1.577,1.898-3.553,2.605-5.825c0.502,0.091,0.997,0.186,1.477,0.291c1.326,0.29,2.56,0.64,3.694,1.031    C36.016,41.268,33.369,42.827,30.434,43.728z M40.546,36.643c-1.612-0.641-3.4-1.18-5.336-1.606    c-0.441-0.096-0.891-0.186-1.346-0.271c0.57-2.623,0.924-5.523,1.018-8.584h9.654C44.222,30.09,42.786,33.685,40.546,36.643z"/>
	</g>
</g>
<g>
</g>
<g>
</g>
<g>
</g>
<g>
</g>
<g>
</g>
<g>
</g>
<g>
</g>
<g>
</g>
<g>
</g>
<g>
</g>
<g>
</g>
<g>
</g>
<g>
</g>
<g>
</g>
<g>
</g>
</svg>
