<?xml version="1.0" encoding="iso-8859-1"?>
<!-- Generator: Adobe Illustrator 19.0.0, SVG Export Plug-In . SVG Version: 6.00 Build 0)  -->
<svg xmlns="http://www.w3.org/2000/svg" xmlns:xlink="http://www.w3.org/1999/xlink" version="1.1" id="Capa_1" x="0px" y="0px" viewBox="0 0 46.442 46.442" style="enable-background:new 0 0 46.442 46.442;" xml:space="preserve">
<g>
	<g>
		<path d="M11.263,2.482c-5.715,0-10.345,4.63-10.345,10.342c0,5.712,4.629,10.345,10.345,10.345    c5.712,0,10.342-4.633,10.342-10.345C21.605,7.112,16.975,2.482,11.263,2.482z M11.263,19.937c-3.921,0-7.112-3.191-7.112-7.112    c0-3.92,3.191-7.11,7.112-7.11c3.92,0,7.11,3.19,7.11,7.11C18.372,16.746,15.183,19.937,11.263,19.937z"/>
	</g>
</g>
<g>
	<g>
		<path d="M35.182,25.755c-5.715,0-10.345,4.63-10.345,10.342c0,5.712,4.629,10.345,10.345,10.345    c5.712,0,10.342-4.633,10.342-10.345C45.524,30.385,40.894,25.755,35.182,25.755z M35.182,43.21c-3.921,0-7.112-3.191-7.112-7.112    c0-3.92,3.191-7.11,7.112-7.11c3.92,0,7.11,3.19,7.11,7.11C42.292,40.019,39.102,43.21,35.182,43.21z"/>
	</g>
</g>
<g>
	<g>
		<polygon points="27.221,4.13 32.841,8.49 6.333,42.648 9.908,45.422 36.415,11.263 42.036,15.624 42.292,0   "/>
	</g>
</g>
<g>
</g>
<g>
</g>
<g>
</g>
<g>
</g>
<g>
</g>
<g>
</g>
<g>
</g>
<g>
</g>
<g>
</g>
<g>
</g>
<g>
</g>
<g>
</g>
<g>
</g>
<g>
</g>
<g>
</g>
</svg>
