<?xml version="1.0" encoding="iso-8859-1"?>
<!-- Generator: Adobe Illustrator 19.0.0, SVG Export Plug-In . SVG Version: 6.00 Build 0)  -->
<svg xmlns="http://www.w3.org/2000/svg" xmlns:xlink="http://www.w3.org/1999/xlink" version="1.1" id="Capa_1" x="0px" y="0px" viewBox="0 0 53.011 53.011" style="enable-background:new 0 0 53.011 53.011;" xml:space="preserve">
<g>
	<g>
		<path d="M45.253,17.779v-3.232H7.758v20.687h37.495v-3.233H42.02v-3.232h3.232v-7.758H42.02v-3.232H45.253z M18.424,25.733v4.327    h-3.232v-4.327c-0.962-0.56-1.616-1.591-1.616-2.784c0-1.786,1.447-3.232,3.232-3.232c1.786,0,3.232,1.447,3.232,3.232    C20.04,24.143,19.386,25.173,18.424,25.733z"/>
	</g>
</g>
<g>
	<g>
		<path d="M0,6.789v29.737c0,3.556,2.909,6.465,6.465,6.465v3.232h9.697v-3.232h20.687v3.232h9.697v-3.232    c3.556,0,6.465-2.909,6.465-6.465V6.789H0z M48.485,38.466H4.525V11.314h43.96V38.466z"/>
	</g>
</g>
<g>
</g>
<g>
</g>
<g>
</g>
<g>
</g>
<g>
</g>
<g>
</g>
<g>
</g>
<g>
</g>
<g>
</g>
<g>
</g>
<g>
</g>
<g>
</g>
<g>
</g>
<g>
</g>
<g>
</g>
</svg>
