<?xml version="1.0" encoding="iso-8859-1"?>
<!-- Generator: Adobe Illustrator 19.0.0, SVG Export Plug-In . SVG Version: 6.00 Build 0)  -->
<svg xmlns="http://www.w3.org/2000/svg" xmlns:xlink="http://www.w3.org/1999/xlink" version="1.1" id="Capa_1" x="0px" y="0px" viewBox="0 0 49.778 49.778" style="enable-background:new 0 0 49.778 49.778;" xml:space="preserve">
<g>
	<g>
		<path d="M24.858,25.536v-0.001L11.967,46.834c3.583,1.877,7.656,2.944,11.98,2.944c13.739,0,24.968-10.714,25.803-24.242H24.858z     M23.947,46.545c-2.521,0-4.965-0.404-7.299-1.203L26.68,28.768h19.367C43.818,38.973,34.699,46.545,23.947,46.545z"/>
	</g>
</g>
<g>
	<g>
		<path d="M23.947,0c-3.957,0-7.686,0.966-10.974,2.668l11.885,19.635h22.948C46.973,9.848,36.613,0,23.947,0z"/>
	</g>
</g>
<g>
	<g>
		<path d="M10.21,4.344C4.055,8.672,0.028,15.823,0.028,23.919S4.055,39.167,10.21,43.494l11.848-19.576L10.21,4.344z"/>
	</g>
</g>
<g>
</g>
<g>
</g>
<g>
</g>
<g>
</g>
<g>
</g>
<g>
</g>
<g>
</g>
<g>
</g>
<g>
</g>
<g>
</g>
<g>
</g>
<g>
</g>
<g>
</g>
<g>
</g>
<g>
</g>
</svg>
