<?xml version="1.0" encoding="iso-8859-1"?>
<!-- Generator: Adobe Illustrator 19.0.0, SVG Export Plug-In . SVG Version: 6.00 Build 0)  -->
<svg xmlns="http://www.w3.org/2000/svg" xmlns:xlink="http://www.w3.org/1999/xlink" version="1.1" id="Capa_1" x="0px" y="0px" viewBox="0 0 58.18 58.18" style="enable-background:new 0 0 58.18 58.18;" xml:space="preserve">
<g>
	<g>
		<path d="M28.93,20.679c-1.475-0.001-2.797-0.593-3.765-1.56c-0.649-0.651-1.124-1.463-1.369-2.372h6.039v-3.232h-5.896    c0.268-0.729,0.687-1.385,1.227-1.927c0.969-0.966,2.29-1.559,3.765-1.56c0.968,0,1.869,0.263,2.658,0.719L33.21,7.95h-0.001    c-1.251-0.726-2.717-1.155-4.278-1.155c-2.358-0.001-4.508,0.961-6.051,2.508c-1.546,1.544-2.507,3.693-2.506,6.051    c-0.001,2.357,0.959,4.507,2.506,6.05c1.543,1.546,3.692,2.508,6.05,2.507c1.559,0.001,3.026-0.427,4.279-1.154l-1.621-2.795    C30.8,20.417,29.9,20.678,28.93,20.679z"/>
	</g>
</g>
<g>
	<g>
		<path d="M54.29,27.992c-0.631,0-1.217,0.166-1.745,0.431l-1.413,0.862c-0.603-1.371-1.97-2.333-3.565-2.333    c-0.632,0-1.217,0.166-1.745,0.431l-2.229,1.262c-0.642-1.266-1.953-2.136-3.47-2.136c-0.631,0-1.218,0.165-1.745,0.431    l-6.292,3.846c0.203,0.065,0.411,0.13,0.592,0.185c0.983,0.3,1.956,0.714,2.834,1.31c0.873,0.595,1.666,1.389,2.164,2.433    c0.331,0.692,0.517,1.487,0.515,2.32c0.001,1.647-0.673,3.152-1.753,4.229c-1.077,1.08-2.582,1.753-4.229,1.753h-0.08l-3.15-0.31    l-10.076-1.292h0.001l0.411-3.206l10.029,1.286l2.905,0.285c0.745-0.012,1.41-0.31,1.903-0.802c0.5-0.503,0.805-1.18,0.805-1.944    c-0.001-0.374-0.073-0.661-0.201-0.932c-0.129-0.269-0.322-0.527-0.596-0.78c-0.543-0.506-1.425-0.959-2.422-1.259    c-1.402-0.425-3.331-1.082-5.388-1.787c-2.054-0.703-4.232-1.453-6.083-2.052c-1.232-0.399-2.325-0.732-3.109-0.934    c-0.445-0.116-2.038-0.089-2.44-0.031c-0.808,0.118-1.845,0.283-2.956,0.466c-0.325,0.054-0.657,0.11-0.991,0.166    c-0.753-2.531-2.815-4.364-5.232-4.364c-0.094,0-5.539,0-5.539,0v25.859c0,0,5.446,0,5.539,0c2.206,0,4.115-1.528,5.005-3.718    c6.318,1.349,17.216,3.61,19.309,3.61c3.728,0,21.653-12.753,26.77-16.276c0.976-0.671,1.557-1.841,1.557-3.115    C58.183,29.737,56.44,27.992,54.29,27.992z"/>
	</g>
</g>
<g>
</g>
<g>
</g>
<g>
</g>
<g>
</g>
<g>
</g>
<g>
</g>
<g>
</g>
<g>
</g>
<g>
</g>
<g>
</g>
<g>
</g>
<g>
</g>
<g>
</g>
<g>
</g>
<g>
</g>
</svg>
