<?xml version="1.0" encoding="iso-8859-1"?>
<!-- Generator: Adobe Illustrator 19.0.0, SVG Export Plug-In . SVG Version: 6.00 Build 0)  -->
<svg xmlns="http://www.w3.org/2000/svg" xmlns:xlink="http://www.w3.org/1999/xlink" version="1.1" id="Capa_1" x="0px" y="0px" viewBox="0 0 58.182 58.182" style="enable-background:new 0 0 58.182 58.182;" xml:space="preserve">
<g>
	<g>
		<path d="M25.338,19.214c0.021-0.645,0.041-1.322,0.06-1.98h4.874v-3.232h-4.816c-0.001-0.229-0.018-0.745-0.018-0.745    c0.001-0.373,0.088-0.721,0.259-1.061c0.255-0.506,0.715-0.99,1.326-1.34c0.61-0.351,1.357-0.562,2.139-0.562    c0.708,0,1.357,0.173,1.915,0.464l1.5-2.863c-1.01-0.529-2.178-0.833-3.415-0.833c-1.811,0.003-3.499,0.635-4.783,1.716    c-0.641,0.542-1.181,1.201-1.566,1.959c-0.384,0.758-0.607,1.619-0.606,2.52c0.001,0.1,0.018,0.546,0.019,0.745h-1.903v3.232    h1.842c-0.017,0.625-0.037,1.266-0.056,1.876c-0.02,0.624-0.041,1.209-0.058,1.716h-1.728v3.232h12.003v-3.232h-7.042    C25.3,20.342,25.32,19.795,25.338,19.214z"/>
	</g>
</g>
<g>
	<g>
		<path d="M54.292,27.725c-0.631,0-1.217,0.166-1.745,0.431l-1.413,0.862c-0.602-1.371-1.97-2.333-3.565-2.333    c-0.632,0-1.217,0.166-1.745,0.431l-2.229,1.262c-0.642-1.266-1.953-2.136-3.47-2.136c-0.631,0-1.218,0.166-1.745,0.431    l-6.292,3.846c0.203,0.065,0.411,0.13,0.592,0.186c0.983,0.3,1.956,0.714,2.834,1.31c0.873,0.595,1.666,1.389,2.164,2.433    c0.331,0.692,0.516,1.487,0.515,2.32c0.001,1.647-0.673,3.152-1.753,4.229c-1.077,1.08-2.582,1.753-4.229,1.753h-0.08l-3.15-0.31    l-10.077-1.292h0.001l0.411-3.206l10.029,1.286l2.905,0.285c0.745-0.012,1.41-0.31,1.903-0.802c0.5-0.503,0.805-1.18,0.805-1.944    c-0.001-0.374-0.073-0.661-0.201-0.932c-0.129-0.269-0.322-0.527-0.596-0.78c-0.543-0.506-1.425-0.959-2.422-1.259    c-1.402-0.425-3.331-1.082-5.388-1.787c-2.054-0.703-4.232-1.453-6.083-2.052c-1.232-0.399-2.325-0.732-3.109-0.933    c-0.445-0.116-2.038-0.089-2.44-0.031c-0.808,0.118-1.845,0.283-2.956,0.466c-0.325,0.054-0.657,0.11-0.991,0.166    c-0.753-2.531-2.815-4.364-5.233-4.364c-0.094,0-5.539,0-5.539,0V51.12c0,0,5.446,0,5.539,0c2.206,0,4.115-1.528,5.005-3.718    c6.318,1.349,17.216,3.61,19.309,3.61c3.728,0,21.653-12.753,26.77-16.276c0.977-0.67,1.559-1.841,1.559-3.115    C58.185,29.47,56.443,27.725,54.292,27.725z"/>
	</g>
</g>
<g>
</g>
<g>
</g>
<g>
</g>
<g>
</g>
<g>
</g>
<g>
</g>
<g>
</g>
<g>
</g>
<g>
</g>
<g>
</g>
<g>
</g>
<g>
</g>
<g>
</g>
<g>
</g>
<g>
</g>
</svg>
