<?xml version="1.0" encoding="iso-8859-1"?>
<!-- Generator: Adobe Illustrator 19.0.0, SVG Export Plug-In . SVG Version: 6.00 Build 0)  -->
<svg xmlns="http://www.w3.org/2000/svg" xmlns:xlink="http://www.w3.org/1999/xlink" version="1.1" id="Capa_1" x="0px" y="0px" viewBox="0 0 51.071 51.071" style="enable-background:new 0 0 51.071 51.071;" xml:space="preserve">
<g>
	<g>
		<path d="M0.666,0v34.263v5.172c0,3.556,2.909,6.465,6.465,6.465h11.857l1.513-8.515l0.114-0.643l0.354-0.548l8.021-12.4    l-4.355-2.709L32.01,9.226c0.574-0.93,1.385-1.674,2.288-2.162c0.905-0.49,1.905-0.741,2.927-0.742    c0.97-0.003,1.968,0.253,2.874,0.737V0H0.666z M11.407,29.47l-5.245-3.934l1.939-2.586l2.512,1.884l3.828-5.741l2.689,1.793    L11.407,29.47z M11.407,17.833l-5.245-3.934l1.939-2.586l2.512,1.884l3.828-5.741l2.689,1.793L11.407,17.833z"/>
	</g>
</g>
<g>
	<g>
		<path d="M48.041,9.82c-0.868-0.562-1.842-0.83-2.804-0.83c-1.692,0-3.35,0.831-4.34,2.354l-2.122-1.342    c-0.481-0.304-1.028-0.451-1.558-0.45c-0.478,0-0.948,0.116-1.373,0.339c-0.425,0.224-0.807,0.562-1.087,0.994l-5.991,9.263    l2.714,1.755l5.825-9.005l1.835,1.159L23.684,37.949l-2.331,13.122l11.059-7.573l17.155-26.517l0.008-0.011    C51.126,14.573,50.439,11.371,48.041,9.82z M46.892,15.165l-2.49,3.85l-3.257-2.107l2.459-3.799    c0.359-0.555,0.97-0.886,1.632-0.886c0.371,0,0.734,0.107,1.049,0.312C47.167,13.104,47.432,14.273,46.892,15.165z"/>
	</g>
</g>
<g>
	<g>
		<polygon points="34.757,10.885 34.757,10.886 34.758,10.884   "/>
	</g>
</g>
<g>
</g>
<g>
</g>
<g>
</g>
<g>
</g>
<g>
</g>
<g>
</g>
<g>
</g>
<g>
</g>
<g>
</g>
<g>
</g>
<g>
</g>
<g>
</g>
<g>
</g>
<g>
</g>
<g>
</g>
</svg>
