<?xml version="1.0" encoding="iso-8859-1"?>
<!-- Generator: Adobe Illustrator 19.0.0, SVG Export Plug-In . SVG Version: 6.00 Build 0)  -->
<svg xmlns="http://www.w3.org/2000/svg" xmlns:xlink="http://www.w3.org/1999/xlink" version="1.1" id="Capa_1" x="0px" y="0px" viewBox="0 0 58.181 58.181" style="enable-background:new 0 0 58.181 58.181;" xml:space="preserve">
<g>
	<g>
		<path d="M31.032,35.232h-14.87C7.273,35.232,0,39.305,0,44.283v9.697h18.532l2.802-8.404l-3.879-5.818h11.636l-3.879,5.818    l2.802,8.404h19.178v-9.669c0-0.01,0.001-0.018,0.001-0.028C47.193,39.305,39.92,35.232,31.032,35.232z"/>
	</g>
</g>
<g>
	<g>
		<path d="M23.595,8.081c-6.604,0-11.958,5.355-11.958,11.96c0,6.604,5.355,11.96,11.958,11.96c2.249,0,4.346-0.633,6.144-1.713    V9.794C27.941,8.713,25.844,8.081,23.595,8.081z"/>
	</g>
</g>
<g>
	<g>
		<path d="M51.717,4.202H39.434c-3.556,0-6.465,2.909-6.465,6.465v16.808l5.818-5.172h12.929c3.556,0,6.465-2.909,6.465-6.465    v-5.172C58.182,7.111,55.273,4.202,51.717,4.202z M51.718,17.777H37.495v-7.111c0-1.051,0.888-1.939,1.939-1.939h12.283    c1.052,0,1.939,0.888,1.939,1.939v5.172h0.001C53.657,16.889,52.769,17.777,51.718,17.777z"/>
	</g>
</g>
<g>
</g>
<g>
</g>
<g>
</g>
<g>
</g>
<g>
</g>
<g>
</g>
<g>
</g>
<g>
</g>
<g>
</g>
<g>
</g>
<g>
</g>
<g>
</g>
<g>
</g>
<g>
</g>
<g>
</g>
</svg>
