<?xml version="1.0" encoding="iso-8859-1"?>
<!-- Generator: Adobe Illustrator 19.0.0, SVG Export Plug-In . SVG Version: 6.00 Build 0)  -->
<svg xmlns="http://www.w3.org/2000/svg" xmlns:xlink="http://www.w3.org/1999/xlink" version="1.1" id="Capa_1" x="0px" y="0px" viewBox="0 0 58.182 58.182" style="enable-background:new 0 0 58.182 58.182;" xml:space="preserve">
<g>
	<g>
		<path d="M46.222,33.616V28.12H30.707v-2.91h9.374c2.133,0,3.879-1.745,3.879-3.879V5.172H14.222v16.161    c0,2.133,1.745,3.879,3.879,3.879h9.374v2.91H11.96v5.495H0v15.515c0,2.133,1.745,3.879,3.879,3.879h19.394    c2.133,0,3.879-1.745,3.879-3.879V33.616h-11.96v-2.263H42.99v2.263H31.03V49.13c0,2.133,1.745,3.879,3.879,3.879h19.394    c2.133,0,3.879-1.745,3.879-3.879V33.616H46.222z M22.626,40.081v8.404H4.525v-8.404H22.626z M18.747,20.685v-9.05h20.687v9.05    H18.747z M53.657,48.484H35.556v-8.404h18.101V48.484z"/>
	</g>
</g>
<g>
</g>
<g>
</g>
<g>
</g>
<g>
</g>
<g>
</g>
<g>
</g>
<g>
</g>
<g>
</g>
<g>
</g>
<g>
</g>
<g>
</g>
<g>
</g>
<g>
</g>
<g>
</g>
<g>
</g>
</svg>
