<?xml version="1.0" encoding="iso-8859-1"?>
<!-- Generator: Adobe Illustrator 19.0.0, SVG Export Plug-In . SVG Version: 6.00 Build 0)  -->
<svg xmlns="http://www.w3.org/2000/svg" xmlns:xlink="http://www.w3.org/1999/xlink" version="1.1" id="Capa_1" x="0px" y="0px" viewBox="0 0 53.011 53.011" style="enable-background:new 0 0 53.011 53.011;" xml:space="preserve">
<g>
	<g>
		<path d="M47.195,7.758v2.263c0,1.25-1.014,2.263-2.263,2.263s-2.263-1.013-2.263-2.263V7.758h-4.526v2.263    c0,1.25-1.014,2.263-2.263,2.263s-2.263-1.013-2.263-2.263V7.758H29.09v2.263c0,1.25-1.014,2.263-2.263,2.263    c-1.248,0-2.263-1.013-2.263-2.263V7.758h-4.525v2.263c0,1.25-1.014,2.263-2.263,2.263s-2.263-1.013-2.263-2.263V7.758H10.99    v2.263c0,1.25-1.014,2.263-2.263,2.263c-1.249,0-2.262-1.014-2.262-2.264V7.758H0v31.03c0,3.556,2.909,6.465,6.465,6.465h40.081    c3.556,0,6.465-2.909,6.465-6.465V7.758H47.195z M19.394,32.646H7.758v-3.232h11.636V32.646z M26.505,24.889H7.758v-3.232h18.747    V24.889z M44.305,33.071c-0.419,0.667-1.027,1.149-1.661,1.457c-0.422,0.207-0.862,0.346-1.307,0.442v1.232h-3.232v-1.206    c-0.487-0.109-0.946-0.273-1.368-0.503c-0.808-0.438-1.469-1.121-1.846-1.95c-0.253-0.551-0.379-1.157-0.378-1.766h3.232    c0.001,0.175,0.033,0.308,0.085,0.42c0.052,0.114,0.125,0.213,0.242,0.313c0.229,0.195,0.677,0.403,1.436,0.405    c0.495,0.001,0.932-0.048,1.263-0.131c0.335-0.083,0.551-0.197,0.665-0.29c0.078-0.064,0.12-0.115,0.157-0.184    c0.048-0.092,0.101-0.235,0.103-0.533c0-0.206-0.026-0.339-0.056-0.432c-0.03-0.092-0.061-0.147-0.105-0.204    c-0.085-0.111-0.269-0.262-0.629-0.418c-0.236-0.102-0.535-0.201-0.874-0.294c-0.452-0.126-0.972-0.242-1.518-0.386    c-0.727-0.197-1.509-0.423-2.276-0.921c-0.433-0.284-0.862-0.677-1.179-1.196c-0.366-0.591-0.551-1.316-0.547-2.05    c0.001-0.729,0.189-1.515,0.649-2.25c0.456-0.733,1.207-1.385,2.174-1.749c0.243-0.092,0.501-0.162,0.768-0.22v-1.18h3.232v1.238    c0.422,0.1,0.825,0.23,1.198,0.412c0.873,0.42,1.596,1.107,1.998,1.958c0.27,0.563,0.398,1.18,0.396,1.791h-3.232    c-0.001-0.176-0.033-0.297-0.08-0.397c-0.049-0.099-0.115-0.189-0.246-0.292c-0.253-0.202-0.839-0.449-1.862-0.447    c-0.702,0.003-1.08,0.156-1.299,0.298c-0.219,0.145-0.323,0.301-0.396,0.484c-0.047,0.121-0.067,0.252-0.067,0.354    c0.002,0.158,0.024,0.244,0.041,0.295l0.066,0.112c0.06,0.074,0.254,0.222,0.629,0.365c0.246,0.096,0.557,0.189,0.908,0.281    c0.467,0.123,1.003,0.242,1.564,0.399c0.746,0.214,1.554,0.481,2.323,1.041c0.434,0.32,0.849,0.752,1.145,1.294    c0.342,0.618,0.511,1.352,0.509,2.113C44.933,31.601,44.728,32.407,44.305,33.071z"/>
	</g>
</g>
<g>
</g>
<g>
</g>
<g>
</g>
<g>
</g>
<g>
</g>
<g>
</g>
<g>
</g>
<g>
</g>
<g>
</g>
<g>
</g>
<g>
</g>
<g>
</g>
<g>
</g>
<g>
</g>
<g>
</g>
</svg>
