<?xml version="1.0" encoding="iso-8859-1"?>
<!-- Generator: Adobe Illustrator 19.0.0, SVG Export Plug-In . SVG Version: 6.00 Build 0)  -->
<svg xmlns="http://www.w3.org/2000/svg" xmlns:xlink="http://www.w3.org/1999/xlink" version="1.1" id="Capa_1" x="0px" y="0px" viewBox="0 0 49.132 49.132" style="enable-background:new 0 0 49.132 49.132;" xml:space="preserve">
<g>
	<g>
		<rect x="22.95" y="7.758" width="3.232" height="3.232"/>
	</g>
</g>
<g>
	<g>
		<rect x="22.95" y="38.14" width="3.232" height="3.232"/>
	</g>
</g>
<g>
	<g>
		<rect x="38.14" y="22.95" width="3.232" height="3.232"/>
	</g>
</g>
<g>
	<g>
		<rect x="7.758" y="22.95" width="3.232" height="3.232"/>
	</g>
</g>
<g>
	<g>
		<path d="M24.566,0C10.998,0,0,10.999,0,24.566c0,13.567,10.998,24.566,24.566,24.566s24.566-10.999,24.566-24.566    C49.132,10.999,38.134,0,24.566,0z M24.566,44.606c-11.051,0-20.04-8.99-20.04-20.04s8.99-20.04,20.04-20.04    c11.05,0,20.04,8.99,20.04,20.04S35.616,44.606,24.566,44.606z"/>
	</g>
</g>
<g>
	<g>
		<path d="M18.741,18.623l-5.943,17.828l17.828-5.943l5.942-17.827L18.741,18.623z M26.969,26.851c-1.261,1.263-3.308,1.262-4.569,0    c-1.263-1.263-1.263-3.308,0-4.57c1.261-1.263,3.308-1.263,4.569,0C28.232,23.543,28.232,25.589,26.969,26.851z"/>
	</g>
</g>
<g>
</g>
<g>
</g>
<g>
</g>
<g>
</g>
<g>
</g>
<g>
</g>
<g>
</g>
<g>
</g>
<g>
</g>
<g>
</g>
<g>
</g>
<g>
</g>
<g>
</g>
<g>
</g>
<g>
</g>
</svg>
