<?xml version="1.0" encoding="iso-8859-1"?>
<!-- Generator: Adobe Illustrator 19.0.0, SVG Export Plug-In . SVG Version: 6.00 Build 0)  -->
<svg xmlns="http://www.w3.org/2000/svg" xmlns:xlink="http://www.w3.org/1999/xlink" version="1.1" id="Capa_1" x="0px" y="0px" viewBox="0 0 51.59 51.59" style="enable-background:new 0 0 51.59 51.59;" xml:space="preserve">
<g>
	<g>
		<path d="M25.795,24.453c-0.753,0-1.487,0.078-2.199,0.213v1.863v15.913c-0.001,0.989-0.394,1.864-1.041,2.514    c-0.65,0.647-1.524,1.04-2.514,1.042c-0.988-0.001-1.864-0.394-2.514-1.042c-0.648-0.65-1.04-1.525-1.041-2.514v-1.293H11.96    v1.293c-0.001,2.224,0.908,4.259,2.367,5.714c1.455,1.459,3.49,2.368,5.714,2.367c2.224,0.001,4.259-0.908,5.714-2.367    c1.459-1.455,2.368-3.49,2.367-5.714V26.529v-1.84C27.37,24.538,26.592,24.453,25.795,24.453z"/>
	</g>
</g>
<g>
	<g>
		<path d="M28.121,4.722V1.068h-4.525v3.644C10.848,5.717,0.727,14.527,0,27.046c1.5-2.476,4.254-4.144,7.422-4.144    c3.516,0,6.529,2.056,7.874,4.997l0.013-0.019c1.778-3.918,5.799-6.659,10.486-6.659c4.68,0,8.694,2.729,10.486,6.64L36.3,27.9    c1.338-2.941,4.357-4.997,7.875-4.997c3.161,0,5.922,1.668,7.415,4.144C50.863,14.569,40.813,5.777,28.121,4.722z"/>
	</g>
</g>
<g>
</g>
<g>
</g>
<g>
</g>
<g>
</g>
<g>
</g>
<g>
</g>
<g>
</g>
<g>
</g>
<g>
</g>
<g>
</g>
<g>
</g>
<g>
</g>
<g>
</g>
<g>
</g>
<g>
</g>
</svg>
