<?xml version="1.0" encoding="iso-8859-1"?>
<!-- Generator: Adobe Illustrator 19.0.0, SVG Export Plug-In . SVG Version: 6.00 Build 0)  -->
<svg xmlns="http://www.w3.org/2000/svg" xmlns:xlink="http://www.w3.org/1999/xlink" version="1.1" id="Capa_1" x="0px" y="0px" viewBox="0 0 54.453 54.453" style="enable-background:new 0 0 54.453 54.453;" xml:space="preserve">
<g>
	<g>
		<path d="M34.341,9.763c1.654,0,3.309,0.632,4.571,1.893c0.014,0.014,0.026,0.031,0.041,0.045h7.429l0.301-7.817L22.911,4.8    L1.885,25.827c-2.514,2.515-2.514,6.629,0,9.143l13.713,13.713c2.513,2.515,6.628,2.514,9.143,0l21.027-21.028l0.266-6.903h-7.08    c-0.016,0.015-0.027,0.032-0.043,0.047c-1.262,1.262-2.917,1.893-4.571,1.893s-3.309-0.632-4.572-1.893    c-2.523-2.524-2.523-6.618,0-9.143C31.031,10.395,32.685,9.763,34.341,9.763z M24.963,38.405l-1.001-1.001    c-0.243,0.16-0.492,0.308-0.749,0.427c-0.654,0.306-1.354,0.471-2.053,0.471c-1.153,0.007-2.283-0.473-3.098-1.3l2.284-2.286    c0.271,0.26,0.502,0.347,0.814,0.354c0.189-0.001,0.418-0.043,0.688-0.17c0.27-0.125,0.582-0.336,0.908-0.661    c0.422-0.422,0.746-0.837,0.939-1.186c0.198-0.354,0.257-0.619,0.256-0.793c-0.001-0.111-0.017-0.198-0.067-0.312    c-0.051-0.114-0.143-0.261-0.326-0.445c-0.198-0.198-0.35-0.289-0.466-0.34c-0.118-0.049-0.209-0.067-0.339-0.068    c-0.156-0.001-0.376,0.038-0.659,0.142c-0.283,0.102-0.617,0.268-0.983,0.475c-0.736,0.41-1.563,0.983-2.525,1.434    c-0.643,0.295-1.374,0.553-2.232,0.557c-0.482,0.001-0.999-0.092-1.484-0.302c-0.487-0.208-0.935-0.524-1.325-0.916    c-0.367-0.367-0.685-0.815-0.919-1.342c-0.233-0.526-0.38-1.136-0.38-1.791c-0.001-0.637,0.14-1.312,0.438-1.965    c0.123-0.272,0.281-0.54,0.456-0.802l-0.977-0.978l2.285-2.285l1.016,1.017c0.202-0.129,0.405-0.249,0.613-0.352    c0.715-0.356,1.473-0.556,2.233-0.556c0.571-0.001,1.137,0.116,1.65,0.337c0.516,0.222,0.977,0.546,1.367,0.935l-2.284,2.286    c-0.128-0.127-0.246-0.203-0.36-0.253c-0.114-0.048-0.228-0.073-0.374-0.074c-0.192,0.001-0.452,0.049-0.794,0.219    c-0.34,0.169-0.754,0.46-1.207,0.913c-0.361,0.362-0.566,0.676-0.682,0.93c-0.116,0.256-0.148,0.454-0.149,0.628    c0,0.176,0.038,0.334,0.102,0.481c0.065,0.146,0.159,0.277,0.25,0.367c0.145,0.144,0.244,0.2,0.313,0.23    c0.07,0.029,0.12,0.039,0.211,0.041c0.118,0.001,0.314-0.032,0.584-0.135c0.268-0.101,0.598-0.268,0.961-0.476    c0.733-0.416,1.576-0.995,2.568-1.447c0.663-0.296,1.418-0.548,2.286-0.55c0.529-0.002,1.092,0.103,1.625,0.335    c0.533,0.23,1.027,0.58,1.467,1.02c0.422,0.422,0.764,0.899,0.995,1.42c0.232,0.52,0.346,1.082,0.345,1.623    c-0.001,0.875-0.278,1.671-0.665,2.367c-0.091,0.162-0.189,0.318-0.292,0.471l1.02,1.02L24.963,38.405z"/>
	</g>
</g>
<g>
	<g>
		<path d="M37.125,14.612c-0.138-0.237-0.295-0.466-0.498-0.669c-0.61-0.61-1.422-0.946-2.285-0.946    c-0.864,0-1.676,0.337-2.287,0.947c-1.26,1.26-1.26,3.311,0.001,4.571c0.609,0.61,1.422,0.946,2.285,0.946    c0.864,0,1.676-0.337,2.285-0.947c0.203-0.203,0.362-0.432,0.499-0.67l17.328,0.001l0.001-3.232L37.125,14.612z"/>
	</g>
</g>
<g>
</g>
<g>
</g>
<g>
</g>
<g>
</g>
<g>
</g>
<g>
</g>
<g>
</g>
<g>
</g>
<g>
</g>
<g>
</g>
<g>
</g>
<g>
</g>
<g>
</g>
<g>
</g>
<g>
</g>
</svg>
