<?xml version="1.0" encoding="iso-8859-1"?>
<!-- Generator: Adobe Illustrator 19.0.0, SVG Export Plug-In . SVG Version: 6.00 Build 0)  -->
<svg xmlns="http://www.w3.org/2000/svg" xmlns:xlink="http://www.w3.org/1999/xlink" version="1.1" id="Capa_1" x="0px" y="0px" viewBox="0 0 51.065 51.065" style="enable-background:new 0 0 51.065 51.065;" xml:space="preserve">
<g>
	<g>
		<path d="M34.018,44.753c-2.698,1.188-5.594,1.785-8.494,1.785c-5.382-0.003-10.742-2.043-14.848-6.148    c-4.107-4.108-6.149-9.468-6.151-14.85c0.002-4.154,1.225-8.297,3.669-11.86l3.397,3.396l1.371-11.428L1.534,7.019l3.418,3.418    C1.657,14.917-0.001,20.232,0,25.539c-0.003,6.524,2.495,13.07,7.476,18.049c4.978,4.98,11.524,7.476,18.048,7.474    c3.518,0,7.038-0.723,10.318-2.17L34.018,44.753z"/>
	</g>
</g>
<g>
	<g>
		<path d="M51.065,25.527c0.003-6.525-2.495-13.072-7.475-18.05C38.611,2.498,32.065,0,25.541,0.003    c-3.525,0-7.051,0.725-10.336,2.178l1.831,4.139c2.698-1.194,5.601-1.791,8.506-1.791c5.382,0.003,10.743,2.044,14.849,6.149    c4.105,4.107,6.147,9.468,6.15,14.851c-0.003,4.155-1.226,8.295-3.669,11.859l-3.396-3.396l-1.371,11.428l11.428-1.371    l-3.418-3.418C49.409,36.149,51.066,30.833,51.065,25.527z"/>
	</g>
</g>
<g>
	<g>
		<path d="M13.977,17.341v15.946H37.25V17.341H13.977z M25.612,28.329l-9.414-6.075h0.001l1.753-2.716l7.661,4.944l7.661-4.944    l1.753,2.716L25.612,28.329z"/>
	</g>
</g>
<g>
</g>
<g>
</g>
<g>
</g>
<g>
</g>
<g>
</g>
<g>
</g>
<g>
</g>
<g>
</g>
<g>
</g>
<g>
</g>
<g>
</g>
<g>
</g>
<g>
</g>
<g>
</g>
<g>
</g>
</svg>
