<?xml version="1.0" encoding="iso-8859-1"?>
<!-- Generator: Adobe Illustrator 19.0.0, SVG Export Plug-In . SVG Version: 6.00 Build 0)  -->
<svg xmlns="http://www.w3.org/2000/svg" xmlns:xlink="http://www.w3.org/1999/xlink" version="1.1" id="Capa_1" x="0px" y="0px" viewBox="0 0 51.065 51.065" style="enable-background:new 0 0 51.065 51.065;" xml:space="preserve">
<g>
	<g>
		<path d="M34.017,44.753c-2.697,1.188-5.594,1.785-8.493,1.785c-5.382-0.003-10.742-2.043-14.849-6.148    c-4.106-4.108-6.147-9.468-6.15-14.852c0.002-4.154,1.226-8.295,3.669-11.858l3.397,3.396l1.371-11.428L1.534,7.019l3.418,3.418    c-3.294,4.48-4.953,9.795-4.952,15.1c-0.003,6.525,2.495,13.072,7.476,18.051c4.978,4.98,11.524,7.476,18.048,7.474    c3.517,0,7.037-0.723,10.318-2.17L34.017,44.753z"/>
	</g>
</g>
<g>
	<g>
		<path d="M51.065,25.527c0.003-6.525-2.495-13.071-7.475-18.05C38.611,2.498,32.065,0,25.541,0.003    c-3.525,0-7.052,0.725-10.337,2.178l1.831,4.139c2.698-1.194,5.601-1.791,8.506-1.791c5.382,0.003,10.742,2.044,14.849,6.149    c4.105,4.108,6.147,9.468,6.15,14.851c-0.002,4.154-1.226,8.295-3.669,11.859l-3.395-3.396l-1.371,11.428l11.428-1.371    l-3.418-3.418C49.409,36.149,51.066,30.833,51.065,25.527z"/>
	</g>
</g>
<g>
	<g>
		<circle cx="25.451" cy="17.772" r="5.818"/>
	</g>
</g>
<g>
	<g>
		<path d="M30.626,25.529H20.282c-3.556,0-6.465,2.036-6.465,4.525v4.525H37.09v-4.525C37.09,27.565,34.181,25.529,30.626,25.529z"/>
	</g>
</g>
<g>
</g>
<g>
</g>
<g>
</g>
<g>
</g>
<g>
</g>
<g>
</g>
<g>
</g>
<g>
</g>
<g>
</g>
<g>
</g>
<g>
</g>
<g>
</g>
<g>
</g>
<g>
</g>
<g>
</g>
</svg>
