<?xml version="1.0" encoding="iso-8859-1"?>
<!-- Generator: Adobe Illustrator 19.0.0, SVG Export Plug-In . SVG Version: 6.00 Build 0)  -->
<svg xmlns="http://www.w3.org/2000/svg" xmlns:xlink="http://www.w3.org/1999/xlink" version="1.1" id="Capa_1" x="0px" y="0px" viewBox="0 0 55.473 55.473" style="enable-background:new 0 0 55.473 55.473;" xml:space="preserve">
<g>
	<g>
		<path d="M50.196,40.286c1.407-3.166,2.199-6.669,2.198-10.349c0.001-5.488-1.738-10.59-4.693-14.752    c-2.953-4.163-7.121-7.401-11.995-9.202l-1.568,4.245c4.004,1.478,7.441,4.148,9.872,7.577c2.431,3.43,3.857,7.604,3.859,12.134    c-0.001,2.797-0.549,5.456-1.537,7.89l-4.184-2.661l1.143,11.454l10.857-3.82L50.196,40.286z"/>
	</g>
</g>
<g>
	<g>
		<path d="M39.26,46.895c-3.482,2.548-7.756,4.051-12.401,4.053c-3.792-0.001-7.332-0.999-10.399-2.749    c-2.179-1.244-4.108-2.874-5.711-4.788l4.075-2.303L4.18,36.729L2.444,48.107l4.311-2.437c2.042,2.605,4.571,4.808,7.463,6.459    c3.726,2.128,8.05,3.345,12.642,3.344c5.631,0.001,10.855-1.834,15.076-4.928L39.26,46.895z"/>
	</g>
</g>
<g>
	<g>
		<path d="M22.593,0l0.037,4.758c-5.355,0.894-10.157,3.451-13.827,7.124c-4.618,4.614-7.48,11.012-7.478,18.056    c0,1.259,0.1,2.484,0.272,3.671l4.48-0.645c-0.145-1.003-0.226-2.009-0.226-3.027c0.001-5.809,2.347-11.047,6.153-14.856    c2.868-2.865,6.544-4.901,10.663-5.735l0.038,4.874L31.7,7.04L22.593,0z"/>
	</g>
</g>
<g>
	<g>
		<path d="M17.959,18.948v21.98H36.06v-21.98H17.959z M27.656,32.846h-5.818v-3.232h5.818V32.846z M32.181,26.382H21.838V23.15    h10.343V26.382z"/>
	</g>
</g>
<g>
</g>
<g>
</g>
<g>
</g>
<g>
</g>
<g>
</g>
<g>
</g>
<g>
</g>
<g>
</g>
<g>
</g>
<g>
</g>
<g>
</g>
<g>
</g>
<g>
</g>
<g>
</g>
<g>
</g>
</svg>
