<?xml version="1.0" encoding="iso-8859-1"?>
<!-- Generator: Adobe Illustrator 19.0.0, SVG Export Plug-In . SVG Version: 6.00 Build 0)  -->
<svg xmlns="http://www.w3.org/2000/svg" xmlns:xlink="http://www.w3.org/1999/xlink" version="1.1" id="Capa_1" x="0px" y="0px" viewBox="0 0 55.473 55.473" style="enable-background:new 0 0 55.473 55.473;" xml:space="preserve">
<g>
	<g>
		<path d="M50.197,40.286c1.407-3.166,2.199-6.669,2.198-10.349c0.001-5.488-1.738-10.59-4.693-14.752    c-2.953-4.163-7.121-7.401-11.995-9.202l-1.568,4.245c4.004,1.478,7.441,4.148,9.872,7.577c2.431,3.43,3.857,7.604,3.859,12.134    c-0.001,2.797-0.549,5.456-1.537,7.89l-4.184-2.661l1.143,11.454l10.857-3.82L50.197,40.286z"/>
	</g>
</g>
<g>
	<g>
		<path d="M39.261,46.895c-3.481,2.548-7.755,4.051-12.401,4.053c-3.791-0.001-7.331-0.999-10.398-2.749    c-2.179-1.244-4.11-2.874-5.712-4.788l4.075-2.303L4.182,36.729L2.445,48.107l4.311-2.437c2.042,2.605,4.57,4.808,7.463,6.459    c3.726,2.128,8.05,3.345,12.642,3.344c5.633,0.001,10.855-1.834,15.076-4.928L39.261,46.895z"/>
	</g>
</g>
<g>
	<g>
		<path d="M22.592,0l0.037,4.758c-5.355,0.895-10.156,3.451-13.826,7.124c-4.618,4.613-7.48,11.012-7.479,18.056    c0,1.259,0.1,2.484,0.273,3.673l4.479-0.648c-0.145-1.001-0.226-2.007-0.226-3.025c0.001-5.809,2.347-11.047,6.154-14.856    c2.866-2.865,6.542-4.901,10.661-5.735l0.038,4.874l8.995-7.18L22.592,0z"/>
	</g>
</g>
<g>
	<g>
		<path d="M26.997,18.302c-5.454,0-9.697,4.155-9.697,8.554c0,5.886,5.34,5.902,5.34,9.704l0.01,5.035h8.694V36.56    c0-3.803,5.349-3.817,5.349-9.704C36.694,22.457,32.452,18.302,26.997,18.302z M31.439,30.461    c-1.106,0.981-2.684,2.382-3.175,4.649h-2.543c-0.49-2.266-2.065-3.666-3.17-4.647c-1.302-1.156-2.019-1.794-2.019-3.606    c0-2.517,2.655-5.322,6.465-5.322s6.465,2.805,6.465,5.322C33.462,28.666,32.744,29.304,31.439,30.461z"/>
	</g>
</g>
<g>
</g>
<g>
</g>
<g>
</g>
<g>
</g>
<g>
</g>
<g>
</g>
<g>
</g>
<g>
</g>
<g>
</g>
<g>
</g>
<g>
</g>
<g>
</g>
<g>
</g>
<g>
</g>
<g>
</g>
</svg>
