<?xml version="1.0" encoding="iso-8859-1"?>
<!-- Generator: Adobe Illustrator 19.0.0, SVG Export Plug-In . SVG Version: 6.00 Build 0)  -->
<svg xmlns="http://www.w3.org/2000/svg" xmlns:xlink="http://www.w3.org/1999/xlink" version="1.1" id="Capa_1" x="0px" y="0px" viewBox="0 0 50.425 50.425" style="enable-background:new 0 0 50.425 50.425;" xml:space="preserve">
<g>
	<g>
		<path d="M2.263,0v37.495c0,3.337,2.563,6.105,5.818,6.432V3.232h31.032V0H2.263z"/>
	</g>
</g>
<g>
	<g>
		<path d="M11.313,6.465V43.96c0,3.556,2.909,6.465,6.465,6.465h23.919c3.556,0,6.465-2.909,6.465-6.465V6.465H11.313z     M19.071,13.899h21.333v3.232H19.071V13.899z M23.919,43.313c-2.678,0-4.848-2.171-4.848-4.848c0-2.678,2.171-4.849,4.848-4.849    s4.849,2.171,4.849,4.849C28.768,41.142,26.597,43.313,23.919,43.313z M19.071,24.889v-3.232h11.636c0,0,0,3.232,0,3.232H19.071z     M34.909,43.313h-3.232v-3.879h3.232V43.313z M40.727,43.313h-3.232v-9.05h3.232V43.313z"/>
	</g>
</g>
<g>
</g>
<g>
</g>
<g>
</g>
<g>
</g>
<g>
</g>
<g>
</g>
<g>
</g>
<g>
</g>
<g>
</g>
<g>
</g>
<g>
</g>
<g>
</g>
<g>
</g>
<g>
</g>
<g>
</g>
</svg>
