<?xml version="1.0" encoding="iso-8859-1"?>
<!-- Generator: Adobe Illustrator 19.0.0, SVG Export Plug-In . SVG Version: 6.00 Build 0)  -->
<svg xmlns="http://www.w3.org/2000/svg" xmlns:xlink="http://www.w3.org/1999/xlink" version="1.1" id="Capa_1" x="0px" y="0px" viewBox="0 0 50.425 50.425" style="enable-background:new 0 0 50.425 50.425;" xml:space="preserve">
<g>
	<g>
		<path d="M43.96,28.768H30.384v6.465H20.04v-6.465H6.465c-2.485,0-4.747-0.947-6.465-2.49v14.773c0,3.556,2.909,6.465,6.465,6.465    H43.96c3.556,0,6.465-2.909,6.465-6.465V26.277C48.707,27.821,46.445,28.768,43.96,28.768z"/>
	</g>
</g>
<g>
	<g>
		<path d="M34.263,11.313V9.374c0-3.556-2.909-6.465-6.465-6.465h-5.172c-3.556,0-6.465,2.909-6.465,6.465v1.939H0v7.758    c0,3.556,2.909,6.465,6.465,6.465H43.96c3.556,0,6.465-2.909,6.465-6.465v-7.758H34.263z M29.737,11.313h-9.05V9.374    c0-1.051,0.888-1.939,1.939-1.939h5.172c1.051,0,1.939,0.888,1.939,1.939V11.313z"/>
	</g>
</g>
<g>
</g>
<g>
</g>
<g>
</g>
<g>
</g>
<g>
</g>
<g>
</g>
<g>
</g>
<g>
</g>
<g>
</g>
<g>
</g>
<g>
</g>
<g>
</g>
<g>
</g>
<g>
</g>
<g>
</g>
</svg>
