<?xml version="1.0" encoding="iso-8859-1"?>
<!-- Generator: Adobe Illustrator 19.0.0, SVG Export Plug-In . SVG Version: 6.00 Build 0)  -->
<svg xmlns="http://www.w3.org/2000/svg" xmlns:xlink="http://www.w3.org/1999/xlink" version="1.1" id="Capa_1" x="0px" y="0px" viewBox="0 0 52.364 52.364" style="enable-background:new 0 0 52.364 52.364;" xml:space="preserve">
<g>
	<g>
		<polygon points="45.899,44.903 45.899,25.509 38.788,25.509 38.788,44.903 29.737,44.903 29.737,25.509 22.626,25.509     22.626,44.903 13.576,44.903 13.576,25.509 6.465,25.509 6.465,44.903 0,44.903 0,49.428 52.364,49.428 52.364,44.903   "/>
	</g>
</g>
<g>
	<g>
		<path d="M26.182,2.936L0,17.778v4.525h52.364v-4.525L26.182,2.936z M26.182,17.778c-2.321,0-4.202-1.882-4.202-4.202    s1.881-4.202,4.202-4.202s4.202,1.882,4.202,4.202S28.503,17.778,26.182,17.778z"/>
	</g>
</g>
<g>
</g>
<g>
</g>
<g>
</g>
<g>
</g>
<g>
</g>
<g>
</g>
<g>
</g>
<g>
</g>
<g>
</g>
<g>
</g>
<g>
</g>
<g>
</g>
<g>
</g>
<g>
</g>
<g>
</g>
</svg>
