<?xml version="1.0" encoding="iso-8859-1"?>
<!-- Generator: Adobe Illustrator 19.0.0, SVG Export Plug-In . SVG Version: 6.00 Build 0)  -->
<svg xmlns="http://www.w3.org/2000/svg" xmlns:xlink="http://www.w3.org/1999/xlink" version="1.1" id="Capa_1" x="0px" y="0px" viewBox="0 0 51.07 51.07" style="enable-background:new 0 0 51.07 51.07;" xml:space="preserve">
<g>
	<g>
		<path d="M44.606,4.525H6.465C2.909,4.525,0,7.434,0,10.989v21.333c0,3.556,2.909,6.465,6.465,6.465H42.02l9.05,7.758V10.989    C51.071,7.434,48.162,4.525,44.606,4.525z M27.765,28.443c-0.158,1.094-1.093,1.939-2.23,1.939c-1.14,0-2.072-0.845-2.23-1.939    h-6.498v-3.232h2.586v-5.084c0-3.619,2.749-6.552,6.141-6.552c3.391,0,6.141,2.933,6.141,6.552v5.084h2.586v3.232H27.765z"/>
	</g>
</g>
<g>
</g>
<g>
</g>
<g>
</g>
<g>
</g>
<g>
</g>
<g>
</g>
<g>
</g>
<g>
</g>
<g>
</g>
<g>
</g>
<g>
</g>
<g>
</g>
<g>
</g>
<g>
</g>
<g>
</g>
</svg>
