<?xml version="1.0" encoding="iso-8859-1"?>
<!-- Generator: Adobe Illustrator 19.0.0, SVG Export Plug-In . SVG Version: 6.00 Build 0)  -->
<svg xmlns="http://www.w3.org/2000/svg" xmlns:xlink="http://www.w3.org/1999/xlink" version="1.1" id="Capa_1" x="0px" y="0px" viewBox="0 0 51.066 51.066" style="enable-background:new 0 0 51.066 51.066;" xml:space="preserve">
<g>
	<g>
		<rect x="16.021" y="24.258" transform="matrix(0.6353 -0.7722 0.7722 0.6353 -10.4956 29.521)" width="19.978" height="3.232"/>
	</g>
</g>
<g>
	<g>
		<path d="M34.496,28.777c0.727,0,1.401,0.197,1.996,0.539l1.619-2.797v-0.001c-1.057-0.612-2.297-0.975-3.614-0.974    c-1.99-0.001-3.808,0.812-5.11,2.117c-1.305,1.303-2.118,3.12-2.117,5.11c-0.001,1.99,0.812,3.807,2.117,5.11    c1.303,1.305,3.119,2.117,5.11,2.117c1.318,0,2.557-0.362,3.614-0.975l-1.619-2.797c-0.595,0.343-1.269,0.539-1.996,0.539    c-1.108-0.001-2.096-0.445-2.824-1.171c-0.392-0.394-0.699-0.865-0.901-1.389h4.455v-3.232h-4.294    c0.193-0.38,0.441-0.727,0.741-1.028C32.401,29.221,33.388,28.778,34.496,28.777z"/>
	</g>
</g>
<g>
	<g>
		<path d="M48.893,15.224l-4.14,1.826c1.189,2.696,1.785,5.593,1.785,8.492c-0.003,5.382-2.044,10.742-6.149,14.849    c-4.107,4.104-9.467,6.147-14.849,6.15c-4.155-0.002-8.296-1.225-11.86-3.668l3.397-3.397L5.648,38.105l1.371,11.428l3.418-3.418    c4.481,3.294,9.796,4.952,15.102,4.951c6.525,0.003,13.07-2.495,18.049-7.475c4.98-4.979,7.476-11.525,7.474-18.049    C51.065,22.022,50.341,18.503,48.893,15.224z"/>
	</g>
</g>
<g>
	<g>
		<path d="M45.419,12.962L44.048,1.534L40.63,4.952C36.149,1.658,30.834-0.001,25.529,0C19.003-0.003,12.457,2.495,7.477,7.476    C2.497,12.454,0.001,19,0.003,25.524c0,3.525,0.725,7.05,2.179,10.337l4.139-1.829c-1.195-2.699-1.793-5.603-1.793-8.507    c0.003-5.383,2.045-10.742,6.149-14.849c4.108-4.106,9.468-6.149,14.851-6.151c4.154,0.002,8.296,1.226,11.86,3.669l-3.397,3.397    L45.419,12.962z"/>
	</g>
</g>
<g>
	<g>
		<path d="M16.958,22.467c0.014-0.42,0.027-0.857,0.04-1.29h3.63v-3.232h-3.579c-0.002-0.065-0.003-0.13-0.007-0.192l-0.001-0.014    l-0.003-0.085c0.001-0.25,0.058-0.482,0.175-0.715c0.175-0.348,0.502-0.698,0.948-0.954c0.445-0.256,0.995-0.413,1.57-0.412    c0.52,0,0.992,0.127,1.398,0.339l1.504-2.861c-0.859-0.451-1.851-0.712-2.902-0.711c-1.537,0.003-2.967,0.538-4.061,1.459    c-0.547,0.462-1.01,1.026-1.341,1.68c-0.331,0.652-0.524,1.396-0.524,2.175c0,0.089,0.003,0.187,0.01,0.291h-1.219v3.232h1.167    c-0.012,0.398-0.024,0.8-0.037,1.186c-0.013,0.387-0.025,0.756-0.037,1.093h-1.093v3.232h9.69v-3.232h-5.362    C16.935,23.146,16.946,22.814,16.958,22.467z"/>
	</g>
</g>
<g>
</g>
<g>
</g>
<g>
</g>
<g>
</g>
<g>
</g>
<g>
</g>
<g>
</g>
<g>
</g>
<g>
</g>
<g>
</g>
<g>
</g>
<g>
</g>
<g>
</g>
<g>
</g>
<g>
</g>
</svg>
