<?xml version="1.0" encoding="iso-8859-1"?>
<!-- Generator: Adobe Illustrator 19.0.0, SVG Export Plug-In . SVG Version: 6.00 Build 0)  -->
<svg xmlns="http://www.w3.org/2000/svg" xmlns:xlink="http://www.w3.org/1999/xlink" version="1.1" id="Capa_1" x="0px" y="0px" viewBox="0 0 51.064 51.064" style="enable-background:new 0 0 51.064 51.064;" xml:space="preserve">
<g>
	<g>
		<rect x="16.019" y="24.259" transform="matrix(0.6354 -0.7722 0.7722 0.6354 -10.4975 29.5152)" width="19.978" height="3.232"/>
	</g>
</g>
<g>
	<g>
		<path d="M21.121,19.446c-0.768-0.56-1.577-0.827-2.323-1.041c-0.561-0.156-1.096-0.276-1.564-0.399    c-0.35-0.091-0.661-0.184-0.908-0.281c-0.375-0.144-0.57-0.291-0.628-0.365l-0.066-0.112c-0.017-0.05-0.04-0.136-0.04-0.295    c-0.001-0.102,0.02-0.233,0.067-0.354c0.073-0.184,0.178-0.339,0.396-0.484c0.22-0.142,0.597-0.295,1.299-0.298    c1.025-0.002,1.61,0.245,1.863,0.447c0.131,0.103,0.197,0.193,0.245,0.292c0.047,0.1,0.079,0.22,0.08,0.397h3.232    c0.001-0.61-0.125-1.227-0.396-1.791c-0.402-0.851-1.125-1.539-1.998-1.958c-0.373-0.181-0.776-0.312-1.199-0.412v-1.237h-3.232    v1.179c-0.266,0.058-0.526,0.128-0.768,0.22c-0.967,0.364-1.718,1.016-2.174,1.749c-0.459,0.736-0.648,1.521-0.649,2.25    c-0.004,0.734,0.18,1.459,0.547,2.05c0.317,0.518,0.746,0.911,1.18,1.196c0.766,0.497,1.548,0.723,2.275,0.921    c0.546,0.143,1.065,0.259,1.518,0.386c0.338,0.094,0.637,0.192,0.874,0.294c0.359,0.155,0.545,0.307,0.629,0.418    c0.044,0.058,0.075,0.113,0.105,0.204c0.03,0.092,0.056,0.226,0.056,0.432c-0.002,0.297-0.056,0.442-0.103,0.533    c-0.038,0.069-0.08,0.12-0.157,0.184c-0.114,0.094-0.33,0.207-0.665,0.29c-0.331,0.083-0.768,0.132-1.263,0.131    c-0.759-0.001-1.207-0.209-1.436-0.405c-0.117-0.1-0.189-0.2-0.242-0.313c-0.052-0.113-0.084-0.245-0.085-0.42h-3.232    c-0.001,0.61,0.125,1.216,0.378,1.766c0.376,0.828,1.038,1.511,1.846,1.95c0.421,0.229,0.882,0.394,1.368,0.503v1.206l3.231,0.001    v-1.233c0.445-0.095,0.884-0.234,1.306-0.442c0.634-0.308,1.243-0.791,1.661-1.457c0.423-0.664,0.627-1.469,0.624-2.294    c0.003-0.762-0.166-1.495-0.509-2.113C21.969,20.198,21.555,19.766,21.121,19.446z"/>
	</g>
</g>
<g>
	<g>
		<path d="M48.893,15.223l-4.14,1.826c1.189,2.696,1.785,5.593,1.785,8.492c-0.003,5.382-2.044,10.742-6.149,14.849    c-4.107,4.105-9.467,6.147-14.849,6.149c-4.155-0.001-8.296-1.225-11.859-3.668l3.396-3.396L5.648,38.104l1.371,11.428    l3.417-3.417c4.481,3.294,9.797,4.952,15.103,4.949c6.525,0.003,13.07-2.494,18.049-7.475c4.98-4.979,7.476-11.525,7.474-18.049    C51.063,22.022,50.34,18.503,48.893,15.223z"/>
	</g>
</g>
<g>
	<g>
		<path d="M45.418,12.962L44.047,1.534l-3.418,3.418C36.148,1.657,30.833-0.002,25.527,0C19.002-0.003,12.456,2.495,7.476,7.476    C2.497,12.454,0,19,0.002,25.524c0,3.525,0.725,7.05,2.179,10.337l4.139-1.829c-1.195-2.7-1.793-5.603-1.793-8.507    c0.003-5.383,2.045-10.742,6.149-14.849c4.108-4.106,9.468-6.148,14.851-6.151c4.154,0.001,8.296,1.225,11.86,3.669L33.99,11.59    L45.418,12.962z"/>
	</g>
</g>
<g>
	<g>
		<path d="M31.827,35.396c0.014-0.42,0.027-0.857,0.04-1.29h3.631v-3.232h-3.579c-0.002-0.065-0.003-0.13-0.007-0.192l-0.001-0.014    l-0.003-0.085c0.001-0.25,0.058-0.482,0.175-0.715c0.175-0.348,0.502-0.698,0.948-0.953c0.445-0.256,0.995-0.413,1.57-0.412    c0.52,0,0.992,0.127,1.398,0.339l1.504-2.861c-0.859-0.451-1.851-0.712-2.902-0.711c-1.537,0.003-2.967,0.538-4.061,1.459    c-0.547,0.462-1.01,1.026-1.341,1.68c-0.331,0.652-0.524,1.396-0.524,2.175c0,0.089,0.003,0.187,0.01,0.291h-1.219v3.232h1.167    c-0.012,0.398-0.024,0.8-0.037,1.186c-0.013,0.387-0.025,0.755-0.037,1.092h-1.093v3.232h9.69v-3.232h-5.362    C31.804,36.075,31.815,35.742,31.827,35.396z"/>
	</g>
</g>
<g>
</g>
<g>
</g>
<g>
</g>
<g>
</g>
<g>
</g>
<g>
</g>
<g>
</g>
<g>
</g>
<g>
</g>
<g>
</g>
<g>
</g>
<g>
</g>
<g>
</g>
<g>
</g>
<g>
</g>
</svg>
