<?xml version="1.0" encoding="iso-8859-1"?>
<!-- Generator: Adobe Illustrator 19.0.0, SVG Export Plug-In . SVG Version: 6.00 Build 0)  -->
<svg xmlns="http://www.w3.org/2000/svg" xmlns:xlink="http://www.w3.org/1999/xlink" version="1.1" id="Capa_1" x="0px" y="0px" viewBox="0 0 53.017 53.017" style="enable-background:new 0 0 53.017 53.017;" xml:space="preserve">
<g>
	<g>
		<path d="M0,6.791v32.97c0,3.556,2.909,6.465,6.465,6.465h40.087c3.556,0,6.465-2.909,6.465-6.465V6.791H0z M4.525,11.316H48.49    v12.378l-6.483-4.247c0.012-0.123,0.019-0.248,0.019-0.374c0-2.142-1.736-3.879-3.879-3.879c-2.143,0-3.879,1.736-3.879,3.879    c0,0.135,0.007,0.269,0.02,0.4l-6.534,6.918c-0.391-0.132-0.808-0.207-1.244-0.207c-0.86,0-1.651,0.283-2.294,0.756l-5.481-3.045    c-0.177-1.979-1.837-3.529-3.861-3.529c-2.143,0-3.879,1.736-3.879,3.879c0,0.087,0.008,0.172,0.013,0.257L4.525,29.42V11.316z     M48.491,39.761c-0.001,1.051-0.89,1.939-1.941,1.939h-3.879v-3.232H39.44V41.7h-6.465v-3.232h-3.232V41.7h-6.465v-3.232h-3.232    V41.7h-6.465v-3.232h-3.232V41.7H6.464c-1.051,0-1.939-0.888-1.939-1.939v-6.282l8.054-6.11c0.643,0.473,1.435,0.756,2.295,0.756    c1.077,0,2.051-0.44,2.753-1.147l5.02,2.789c-0.008,0.098-0.015,0.197-0.015,0.298c0,2.142,1.736,3.879,3.879,3.879    s3.879-1.736,3.879-3.879c0-0.514-0.102-1.004-0.283-1.453l5.934-6.284c0.606,0.394,1.33,0.625,2.107,0.625    c0.831,0,1.599-0.263,2.23-0.709l8.113,5.315V39.761z"/>
	</g>
</g>
<g>
</g>
<g>
</g>
<g>
</g>
<g>
</g>
<g>
</g>
<g>
</g>
<g>
</g>
<g>
</g>
<g>
</g>
<g>
</g>
<g>
</g>
<g>
</g>
<g>
</g>
<g>
</g>
<g>
</g>
</svg>
