<?xml version="1.0" encoding="iso-8859-1"?>
<!-- Generator: Adobe Illustrator 19.0.0, SVG Export Plug-In . SVG Version: 6.00 Build 0)  -->
<svg xmlns="http://www.w3.org/2000/svg" xmlns:xlink="http://www.w3.org/1999/xlink" version="1.1" id="Capa_1" x="0px" y="0px" viewBox="0 0 53.656 53.656" style="enable-background:new 0 0 53.656 53.656;" xml:space="preserve">
<g>
	<g>
		<path d="M45.799,8.343c-4.848-4.852-11.57-7.859-18.97-7.858C19.427,0.484,12.706,3.491,7.858,8.343    C3.006,13.19-0.001,19.911,0,27.313v10.343h4.525V27.313c0.001-6.166,2.493-11.728,6.533-15.771    c4.043-4.04,9.604-6.531,15.771-6.533C32.994,5.01,38.556,7.5,42.6,11.542c4.04,4.043,6.531,9.604,6.532,15.771v17.778    c-0.001,0.542-0.213,1.012-0.568,1.371c-0.359,0.355-0.829,0.567-1.371,0.568H32.646v-1.616h-7.758    c-2.142,0-3.879,1.737-3.879,3.879c0,2.142,1.737,3.879,3.879,3.879h7.758v-1.616h14.545c1.778,0.001,3.408-0.727,4.571-1.894    c1.167-1.162,1.895-2.793,1.894-4.57V27.313C53.658,19.911,50.651,13.19,45.799,8.343z"/>
	</g>
</g>
<g>
	<g>
		<path d="M39.758,23.435L39.758,23.435c-2.844-0.001-5.172,2.908-5.172,6.464v7.111c0,3.556,2.327,6.465,5.172,6.465h6.465v-20.04    H39.758z"/>
	</g>
</g>
<g>
	<g>
		<path d="M13.899,23.434H7.434v20.04h6.465c2.844,0,5.172-2.909,5.172-6.465v-7.111C19.071,26.343,16.743,23.434,13.899,23.434z"/>
	</g>
</g>
<g>
</g>
<g>
</g>
<g>
</g>
<g>
</g>
<g>
</g>
<g>
</g>
<g>
</g>
<g>
</g>
<g>
</g>
<g>
</g>
<g>
</g>
<g>
</g>
<g>
</g>
<g>
</g>
<g>
</g>
</svg>
