<?xml version="1.0" encoding="iso-8859-1"?>
<!-- Generator: Adobe Illustrator 19.0.0, SVG Export Plug-In . SVG Version: 6.00 Build 0)  -->
<svg xmlns="http://www.w3.org/2000/svg" xmlns:xlink="http://www.w3.org/1999/xlink" version="1.1" id="Capa_1" x="0px" y="0px" viewBox="0 0 51.071 51.071" style="enable-background:new 0 0 51.071 51.071;" xml:space="preserve">
<g>
	<g>
		<path d="M32.97,10.02v3.232v3.232h-3.232h-8.404h-3.232v-3.232V10.02H0v27.798c0,3.556,2.909,6.465,6.465,6.465h38.141    c3.556,0,6.465-2.909,6.465-6.465V10.02H32.97z M13.576,19.717c2.499,0,4.525,2.027,4.525,4.525s-2.027,4.525-4.525,4.525    S9.05,26.741,9.05,24.242S11.077,19.717,13.576,19.717z M22.627,37.172h-0.001H4.525v-3.677h0.012    c0.118-1.899,2.972-3.434,6.453-3.434h5.172c3.481,0,6.335,1.535,6.453,3.435h0.012V37.172z M37.495,34.263h-9.697V31.03h9.697    V34.263z M46.545,26.505H27.798v-3.232h18.747V26.505z"/>
	</g>
</g>
<g>
	<g>
		<rect x="21.333" y="6.788" width="8.404" height="6.465"/>
	</g>
</g>
<g>
</g>
<g>
</g>
<g>
</g>
<g>
</g>
<g>
</g>
<g>
</g>
<g>
</g>
<g>
</g>
<g>
</g>
<g>
</g>
<g>
</g>
<g>
</g>
<g>
</g>
<g>
</g>
<g>
</g>
</svg>
