<?xml version="1.0" encoding="iso-8859-1"?>
<!-- Generator: Adobe Illustrator 19.0.0, SVG Export Plug-In . SVG Version: 6.00 Build 0)  -->
<svg xmlns="http://www.w3.org/2000/svg" xmlns:xlink="http://www.w3.org/1999/xlink" version="1.1" id="Capa_1" x="0px" y="0px" viewBox="0 0 53.658 53.658" style="enable-background:new 0 0 53.658 53.658;" xml:space="preserve">
<g>
	<g>
		<circle cx="6.465" cy="27.475" r="6.465"/>
	</g>
</g>
<g>
	<g>
		<circle cx="36.2" cy="10.667" r="6.465"/>
	</g>
</g>
<g>
	<g>
		<circle cx="36.2" cy="42.99" r="6.465"/>
	</g>
</g>
<g>
	<g>
		<path d="M47.192,21.01c-2.773,0-5.132,1.749-6.049,4.202H34.75c-0.754-3.867-4.157-6.788-8.245-6.788    c-0.931,0-1.824,0.158-2.661,0.437l-2.348-3.751c1.099-1.159,1.777-2.721,1.777-4.443c0-3.57-2.894-6.465-6.465-6.465    c-3.57,0-6.465,2.895-6.465,6.465c0,3.569,2.895,6.465,6.465,6.465c0.681,0,1.335-0.106,1.952-0.301l2.272,3.629    c-1.791,1.542-2.93,3.821-2.93,6.369c0,2.617,1.198,4.955,3.074,6.496l-2.307,3.542c-0.648-0.219-1.339-0.341-2.06-0.341    c-3.57,0-6.465,2.895-6.465,6.465c0,3.569,2.895,6.465,6.465,6.465s6.465-2.896,6.465-6.465c0-1.681-0.647-3.207-1.698-4.357    l2.457-3.772c0.782,0.24,1.612,0.371,2.473,0.371c4.088,0,7.491-2.921,8.245-6.788h6.058c0.469,3.109,3.144,5.495,6.384,5.495    c3.57,0,6.465-2.896,6.465-6.465C53.657,23.905,50.762,21.01,47.192,21.01z M26.505,32c-2.852,0-5.172-2.32-5.172-5.172    s2.32-5.172,5.172-5.172s5.172,2.32,5.172,5.172S29.357,32,26.505,32z"/>
	</g>
</g>
<g>
</g>
<g>
</g>
<g>
</g>
<g>
</g>
<g>
</g>
<g>
</g>
<g>
</g>
<g>
</g>
<g>
</g>
<g>
</g>
<g>
</g>
<g>
</g>
<g>
</g>
<g>
</g>
<g>
</g>
</svg>
