<?xml version="1.0" encoding="iso-8859-1"?>
<!-- Generator: Adobe Illustrator 19.0.0, SVG Export Plug-In . SVG Version: 6.00 Build 0)  -->
<svg xmlns="http://www.w3.org/2000/svg" xmlns:xlink="http://www.w3.org/1999/xlink" version="1.1" id="Capa_1" x="0px" y="0px" viewBox="0 0 53.011 53.011" style="enable-background:new 0 0 53.011 53.011;" xml:space="preserve">
<g>
	<g>
		<path d="M0,7.758v31.03c0,3.556,2.909,6.465,6.465,6.465h40.081c3.556,0,6.465-2.909,6.465-6.465V7.758H0z M14.222,39.111H4.525    v-3.232h9.697V39.111z M4.525,31.354v-3.232h18.747v3.232H4.525z M42.99,38.788c-1.515,0-2.885-0.613-3.879-1.603    c-0.994,0.99-2.365,1.603-3.879,1.603c-3.035,0-5.495-2.461-5.495-5.495c0-3.034,2.46-5.495,5.495-5.495    c1.514,0,2.885,0.613,3.879,1.603c0.994-0.99,2.364-1.603,3.879-1.603c3.034,0,5.495,2.46,5.495,5.495    C48.485,36.327,46.024,38.788,42.99,38.788z M48.485,21.935H4.525v-7.758h43.96V21.935z"/>
	</g>
</g>
<g>
</g>
<g>
</g>
<g>
</g>
<g>
</g>
<g>
</g>
<g>
</g>
<g>
</g>
<g>
</g>
<g>
</g>
<g>
</g>
<g>
</g>
<g>
</g>
<g>
</g>
<g>
</g>
<g>
</g>
</svg>
