<?xml version="1.0" encoding="iso-8859-1"?>
<!-- Generator: Adobe Illustrator 19.0.0, SVG Export Plug-In . SVG Version: 6.00 Build 0)  -->
<svg xmlns="http://www.w3.org/2000/svg" xmlns:xlink="http://www.w3.org/1999/xlink" version="1.1" id="Capa_1" x="0px" y="0px" viewBox="0 0 51.946 51.946" style="enable-background:new 0 0 51.946 51.946;" xml:space="preserve">
<g>
	<g>
		<path d="M45.985,17.473l-3.433,3.432c0.875,2.206,1.36,4.606,1.36,7.12c0,10.694-8.7,19.395-19.394,19.395    c-10.694,0-19.394-8.7-19.394-19.395c0-10.694,8.7-19.393,19.394-19.393c1.719,0,3.386,0.228,4.973,0.649l3.59-3.589    c-2.659-1.021-5.544-1.585-8.563-1.585c-13.209,0-23.919,10.709-23.919,23.919c0,13.211,10.711,23.92,23.919,23.92    c13.211,0,23.919-10.709,23.919-23.92C48.438,24.236,47.552,20.656,45.985,17.473z"/>
	</g>
</g>
<g>
	<g>
		<path d="M36.125,21.71l-2.418,2.593c0.325,0.967,0.507,1.999,0.507,3.074c0,5.347-4.35,9.698-9.697,9.698    c-5.347,0-9.697-4.35-9.697-9.698c0-5.346,4.35-9.696,9.697-9.696c0.917,0,1.8,0.136,2.641,0.375l2.409-2.583    c-1.552-0.659-3.258-1.025-5.05-1.025c-7.14,0-12.929,5.789-12.929,12.929c0,7.14,5.789,12.93,12.929,12.93    c7.139,0,12.929-5.79,12.929-12.93C37.448,25.342,36.964,23.423,36.125,21.71z"/>
	</g>
</g>
<g>
	<g>
		<path d="M46.065,7.383l2.731-2.811L46.477,2.32l-2.546,2.62L43.438,0L32.292,11.147v5.774l-7.092,7.3    c-0.22-0.047-0.448-0.075-0.683-0.075c-1.786,0-3.232,1.447-3.232,3.232c0,1.785,1.447,3.232,3.232,3.232    c1.785,0,3.232-1.447,3.232-3.232c0-0.341-0.067-0.664-0.165-0.973l7.141-7.351h5.477L51.346,7.91L46.065,7.383z"/>
	</g>
</g>
<g>
</g>
<g>
</g>
<g>
</g>
<g>
</g>
<g>
</g>
<g>
</g>
<g>
</g>
<g>
</g>
<g>
</g>
<g>
</g>
<g>
</g>
<g>
</g>
<g>
</g>
<g>
</g>
<g>
</g>
</svg>
