<?xml version="1.0" encoding="iso-8859-1"?>
<!-- Generator: Adobe Illustrator 19.0.0, SVG Export Plug-In . SVG Version: 6.00 Build 0)  -->
<svg xmlns="http://www.w3.org/2000/svg" xmlns:xlink="http://www.w3.org/1999/xlink" version="1.1" id="Capa_1" x="0px" y="0px" viewBox="0 0 47.839 47.839" style="enable-background:new 0 0 47.839 47.839;" xml:space="preserve">
<g>
	<g>
		<path d="M36.525,37.495c-1.782,0-3.232,1.45-3.232,3.232v7.111l10.343-10.343H36.525z"/>
	</g>
</g>
<g>
	<g>
		<path d="M4.202,0v41.374c0,3.556,2.909,6.465,6.465,6.465h19.394v-7.111c0-3.556,2.909-6.465,6.465-6.465h7.111V0H4.202z     M24.242,11.313h11.636v3.232H24.242V11.313z M14.942,29.47l-3.952-2.965l-1.293-0.97l1.939-2.586l2.512,1.884l3.828-5.741    l2.689,1.793L14.942,29.47z M14.942,17.833l-3.952-2.965l-1.293-0.97l1.939-2.586l2.512,1.884l3.828-5.741l2.689,1.793    L14.942,17.833z M24.242,26.182V22.95h11.636v3.232H24.242z"/>
	</g>
</g>
<g>
</g>
<g>
</g>
<g>
</g>
<g>
</g>
<g>
</g>
<g>
</g>
<g>
</g>
<g>
</g>
<g>
</g>
<g>
</g>
<g>
</g>
<g>
</g>
<g>
</g>
<g>
</g>
<g>
</g>
</svg>
