<?xml version="1.0" encoding="iso-8859-1"?>
<!-- Generator: Adobe Illustrator 19.0.0, SVG Export Plug-In . SVG Version: 6.00 Build 0)  -->
<svg xmlns="http://www.w3.org/2000/svg" xmlns:xlink="http://www.w3.org/1999/xlink" version="1.1" id="Capa_1" x="0px" y="0px" viewBox="0 0 57.534 57.534" style="enable-background:new 0 0 57.534 57.534;" xml:space="preserve">
<g>
	<g>
		<circle cx="29.09" cy="17.129" r="4.525"/>
	</g>
</g>
<g>
	<g>
		<path d="M38.13,26.383c-0.118-1.899-2.972-3.434-6.453-3.434h-5.172c-3.481,0-6.335,1.535-6.453,3.435H20.04v3.676h18.101v-3.677    H38.13z"/>
	</g>
</g>
<g>
	<g>
		<path d="M53.01,33.292c-1.029,0-1.974,0.347-2.734,0.925l-2.268-1.41c1.541-2.949,2.416-6.3,2.416-9.859    c0-11.783-9.55-21.333-21.333-21.333c-11.782,0-21.333,9.55-21.333,21.333c0,3.455,0.826,6.715,2.283,9.601L7.304,34.25    c-0.767-0.599-1.73-0.959-2.779-0.959C2.025,33.292,0,35.319,0,37.818c0,2.499,2.025,4.525,4.525,4.525s4.525-2.027,4.525-4.525    c0-0.273-0.028-0.539-0.074-0.799l2.737-1.702c3.574,5.014,9.26,8.412,15.761,8.899v2.955c-1.7,0.652-2.909,2.294-2.909,4.223    c0,2.499,2.026,4.525,4.525,4.525c2.5,0,4.525-2.027,4.525-4.525c0-1.928-1.209-3.572-2.909-4.223v-2.955    c6.4-0.48,12.011-3.779,15.595-8.663l2.266,1.41c-0.053,0.277-0.083,0.563-0.083,0.856c0,2.499,2.025,4.525,4.525,4.525    s4.525-2.027,4.525-4.525S55.51,33.292,53.01,33.292z M29.091,39.757c-9.268,0-16.808-7.54-16.808-16.808    s7.54-16.808,16.808-16.808s16.808,7.54,16.808,16.808S38.359,39.757,29.091,39.757z"/>
	</g>
</g>
<g>
</g>
<g>
</g>
<g>
</g>
<g>
</g>
<g>
</g>
<g>
</g>
<g>
</g>
<g>
</g>
<g>
</g>
<g>
</g>
<g>
</g>
<g>
</g>
<g>
</g>
<g>
</g>
<g>
</g>
</svg>
