<?xml version="1.0" encoding="iso-8859-1"?>
<!-- Generator: Adobe Illustrator 19.0.0, SVG Export Plug-In . SVG Version: 6.00 Build 0)  -->
<svg xmlns="http://www.w3.org/2000/svg" xmlns:xlink="http://www.w3.org/1999/xlink" version="1.1" id="Capa_1" x="0px" y="0px" viewBox="0 0 51.064 51.064" style="enable-background:new 0 0 51.064 51.064;" xml:space="preserve">
<g>
	<g>
		<path d="M34.016,44.754c-2.696,1.188-5.594,1.785-8.493,1.785c-5.382-0.003-10.742-2.043-14.849-6.148    c-4.106-4.108-6.147-9.468-6.15-14.852c0.001-4.154,1.225-8.295,3.668-11.858l3.397,3.396L12.96,5.649L1.533,7.02l3.418,3.418    c-3.294,4.48-4.952,9.795-4.951,15.1c-0.003,6.525,2.494,13.072,7.475,18.051c4.978,4.98,11.524,7.476,18.048,7.474    c3.518,0,7.038-0.723,10.318-2.17L34.016,44.754z"/>
	</g>
</g>
<g>
	<g>
		<path d="M51.064,25.527c0.003-6.525-2.494-13.072-7.475-18.05C38.61,2.496,32.064,0,25.54,0.001c-3.524,0-7.05,0.725-10.336,2.178    l1.829,4.139c2.7-1.194,5.603-1.791,8.507-1.791c5.383,0.003,10.742,2.044,14.849,6.149c4.105,4.108,6.147,9.468,6.15,14.851    c-0.001,4.154-1.225,8.295-3.669,11.859l-3.396-3.397l-1.371,11.428l11.428-1.371l-3.418-3.418    C49.407,36.147,51.066,30.832,51.064,25.527z"/>
	</g>
</g>
<g>
	<g>
		<path d="M31.271,15.841h-10.99c-3.556,0-6.465,2.909-6.465,6.465v15.515l5.172-4.525h12.283c3.556,0,6.465-2.909,6.465-6.465    v-4.525C37.735,18.75,34.826,15.841,31.271,15.841z M21.251,28.77c-0.893,0-1.617-0.723-1.617-1.616s0.723-1.616,1.617-1.616    c0.893,0,1.616,0.723,1.616,1.616S22.144,28.77,21.251,28.77z M25.776,28.77c-0.893,0-1.617-0.723-1.617-1.616    s0.723-1.616,1.617-1.616c0.893,0,1.616,0.723,1.616,1.616S26.669,28.77,25.776,28.77z M30.302,28.77    c-0.893,0-1.617-0.723-1.617-1.616s0.723-1.616,1.617-1.616c0.893,0,1.615,0.723,1.615,1.616S31.195,28.77,30.302,28.77z"/>
	</g>
</g>
<g>
</g>
<g>
</g>
<g>
</g>
<g>
</g>
<g>
</g>
<g>
</g>
<g>
</g>
<g>
</g>
<g>
</g>
<g>
</g>
<g>
</g>
<g>
</g>
<g>
</g>
<g>
</g>
<g>
</g>
</svg>
