<?xml version="1.0" encoding="iso-8859-1"?>
<!-- Generator: Adobe Illustrator 19.0.0, SVG Export Plug-In . SVG Version: 6.00 Build 0)  -->
<svg xmlns="http://www.w3.org/2000/svg" xmlns:xlink="http://www.w3.org/1999/xlink" version="1.1" id="Capa_1" x="0px" y="0px" viewBox="0 0 56.889 56.889" style="enable-background:new 0 0 56.889 56.889;" xml:space="preserve">
<g>
	<g>
		<path d="M50.424,6.788H21.333c-3.556,0-6.465,2.909-6.465,6.465v16.162c0,3.556,2.909,6.465,6.465,6.465h26.505l9.051,7.758    V13.253C56.889,9.697,53.98,6.788,50.424,6.788z M29.414,29.414c-1.25,0-2.263-1.012-2.263-2.263s1.012-2.263,2.263-2.263    c1.25,0,2.263,1.012,2.263,2.263S30.664,29.414,29.414,29.414z M35.879,29.414c-1.25,0-2.263-1.012-2.263-2.263    s1.012-2.263,2.263-2.263c1.251,0,2.263,1.012,2.263,2.263S37.129,29.414,35.879,29.414z M42.343,29.414    c-1.25,0-2.263-1.012-2.263-2.263c0-1.249,1.012-2.263,2.263-2.263c1.251,0,2.263,1.014,2.263,2.263    C44.606,28.402,43.594,29.414,42.343,29.414z"/>
	</g>
</g>
<g>
	<g>
		<path d="M21.333,39.111c-5.347,0-9.697-4.35-9.697-9.697V19.071H6.465C2.909,19.071,0,21.98,0,25.535v24.566l7.758-6.465h19.394    c2.881,0,5.336-1.91,6.164-4.525H21.333z"/>
	</g>
</g>
<g>
</g>
<g>
</g>
<g>
</g>
<g>
</g>
<g>
</g>
<g>
</g>
<g>
</g>
<g>
</g>
<g>
</g>
<g>
</g>
<g>
</g>
<g>
</g>
<g>
</g>
<g>
</g>
<g>
</g>
</svg>
