<?xml version="1.0" encoding="iso-8859-1"?>
<!-- Generator: Adobe Illustrator 19.0.0, SVG Export Plug-In . SVG Version: 6.00 Build 0)  -->
<svg xmlns="http://www.w3.org/2000/svg" xmlns:xlink="http://www.w3.org/1999/xlink" version="1.1" id="Capa_1" x="0px" y="0px" viewBox="0 0 51.071 51.071" style="enable-background:new 0 0 51.071 51.071;" xml:space="preserve">
<g>
	<g>
		<path d="M47.515,14.222v-1.939c0.001-1.334-0.549-2.554-1.423-3.426c-0.871-0.873-2.091-1.424-3.426-1.423H29.737    c-0.443-0.001-0.84-0.178-1.14-0.476c-0.298-0.301-0.475-0.697-0.476-1.14V2.586h-3.232v3.232    c-0.001,1.334,0.549,2.554,1.423,3.426c0.871,0.873,2.091,1.423,3.426,1.423h12.929c0.443,0,0.84,0.178,1.14,0.476    c0.298,0.301,0.475,0.697,0.476,1.14v1.939H0V42.02c0,3.556,2.909,6.465,6.465,6.465h38.141c3.556,0,6.465-2.909,6.465-6.465    V14.222H47.515z M32.97,23.919h4.525v4.525H32.97V23.919z M32.97,30.384h4.525v4.525H32.97V30.384z M26.505,23.919h4.525v4.525    h-4.525V23.919z M26.505,30.384h4.525v4.525h-4.525V30.384z M20.04,23.919h4.525v4.525H20.04V23.919z M20.04,30.384h4.525v4.525    H20.04V30.384z M13.576,23.919h4.525v4.525h-4.525V23.919z M13.576,30.384h4.525v4.525h-4.525V30.384z M7.111,23.919h4.525v4.525    H7.111V23.919z M7.111,30.384h4.525v4.525H7.111V30.384z M14.222,41.374H9.697v-4.525h4.525V41.374z M34.909,41.374H16.162v-4.525    h18.747V41.374z M41.374,41.374h-4.525v-4.525h4.525V41.374z M43.96,34.909h-4.525v-4.525h4.525V34.909z M43.96,28.444h-4.525    v-4.525h4.525V28.444z"/>
	</g>
</g>
<g>
</g>
<g>
</g>
<g>
</g>
<g>
</g>
<g>
</g>
<g>
</g>
<g>
</g>
<g>
</g>
<g>
</g>
<g>
</g>
<g>
</g>
<g>
</g>
<g>
</g>
<g>
</g>
<g>
</g>
</svg>
