<?xml version="1.0" encoding="iso-8859-1"?>
<!-- Generator: Adobe Illustrator 19.0.0, SVG Export Plug-In . SVG Version: 6.00 Build 0)  -->
<svg xmlns="http://www.w3.org/2000/svg" xmlns:xlink="http://www.w3.org/1999/xlink" version="1.1" id="Capa_1" x="0px" y="0px" viewBox="0 0 50.771 50.771" style="enable-background:new 0 0 50.771 50.771;" xml:space="preserve">
<g>
	<g>
		<path d="M31.03,19.154c-0.709,0-1.378,0.168-1.975,0.458l-4.181-3.919c0.216-0.528,0.337-1.105,0.337-1.711    c0-2.499-2.025-4.525-4.525-4.525s-4.525,2.026-4.525,4.525c0,1.089,0.385,2.087,1.025,2.868l-3.567,6.241    c-0.226-0.035-0.456-0.058-0.691-0.058c-2.5,0-4.525,2.026-4.525,4.525c0,2.499,2.025,4.525,4.525,4.525s4.525-2.026,4.525-4.525    c0-1.089-0.385-2.087-1.025-2.868l3.567-6.241c0.226,0.035,0.456,0.058,0.691,0.058c0.709,0,1.378-0.168,1.975-0.458l4.181,3.92    c-0.216,0.528-0.337,1.105-0.337,1.711c0,2.499,2.025,4.525,4.525,4.525s4.525-2.025,4.525-4.525    C35.556,21.18,33.53,19.154,31.03,19.154z"/>
	</g>
</g>
<g>
	<g>
		<path d="M38.311,33.335c2.338-3.386,3.709-7.491,3.709-11.918c0-11.603-9.405-21.01-21.01-21.01C9.405,0.406,0,9.813,0,21.416    c0,11.603,9.405,21.01,21.01,21.01c4.844,0,9.301-1.643,12.855-4.397L46.2,50.364l4.571-4.57L38.311,33.335z M21.01,39.194    c-9.803,0-17.778-7.975-17.778-17.778c0-9.803,7.975-17.778,17.778-17.778s17.778,7.975,17.778,17.778    C38.788,31.219,30.813,39.194,21.01,39.194z"/>
	</g>
</g>
<g>
</g>
<g>
</g>
<g>
</g>
<g>
</g>
<g>
</g>
<g>
</g>
<g>
</g>
<g>
</g>
<g>
</g>
<g>
</g>
<g>
</g>
<g>
</g>
<g>
</g>
<g>
</g>
<g>
</g>
</svg>
