<?xml version="1.0" encoding="iso-8859-1"?>
<!-- Generator: Adobe Illustrator 19.0.0, SVG Export Plug-In . SVG Version: 6.00 Build 0)  -->
<svg xmlns="http://www.w3.org/2000/svg" xmlns:xlink="http://www.w3.org/1999/xlink" version="1.1" id="Capa_1" x="0px" y="0px" viewBox="0 0 50.531 50.531" style="enable-background:new 0 0 50.531 50.531;" xml:space="preserve">
<g>
	<g>
		<path d="M44.066,1.587H27.258c-3.556,0-6.465,2.909-6.465,6.465v8.404c0,3.556,2.909,6.465,6.465,6.465h18.101l5.172,4.525V8.051    C50.53,4.496,47.621,1.587,44.066,1.587z M30.489,18.394c-1.071,0-1.939-0.868-1.939-1.939c0-1.071,0.868-1.939,1.939-1.939    c1.072,0,1.94,0.868,1.94,1.939C32.429,17.527,31.561,18.394,30.489,18.394z M35.661,18.394c-1.071,0-1.939-0.868-1.939-1.939    c0-1.071,0.868-1.939,1.939-1.939c1.072,0,1.94,0.868,1.94,1.939C37.601,17.527,36.733,18.394,35.661,18.394z M40.833,18.394    c-1.071,0-1.939-0.868-1.939-1.939c0-1.071,0.868-1.939,1.939-1.939c1.072,0,1.94,0.868,1.94,1.939    C42.773,17.527,41.904,18.394,40.833,18.394z"/>
	</g>
</g>
<g>
	<g>
		<path d="M34.8,32.845c-3.057-1.817-7.044-0.802-8.86,2.255l-0.985,1.658c-2.411-1.736-4.748-3.707-6.962-5.922    c-2.115-2.115-4.012-4.34-5.691-6.638l1.525-0.906c3.057-1.817,4.071-5.803,2.254-8.86L10.138,4.428L0.135,10.373l0.008,0.014    L0,10.428c2.518,8.379,7.434,16.701,14.565,23.834c7.251,7.25,15.729,12.204,24.248,14.682l0.045-0.154l0.002,0.001l5.944-10.003    L34.8,32.845z"/>
	</g>
</g>
<g>
</g>
<g>
</g>
<g>
</g>
<g>
</g>
<g>
</g>
<g>
</g>
<g>
</g>
<g>
</g>
<g>
</g>
<g>
</g>
<g>
</g>
<g>
</g>
<g>
</g>
<g>
</g>
<g>
</g>
</svg>
