<?xml version="1.0" encoding="iso-8859-1"?>
<!-- Generator: Adobe Illustrator 19.0.0, SVG Export Plug-In . SVG Version: 6.00 Build 0)  -->
<svg xmlns="http://www.w3.org/2000/svg" xmlns:xlink="http://www.w3.org/1999/xlink" version="1.1" id="Capa_1" x="0px" y="0px" viewBox="0 0 45.252 45.252" style="enable-background:new 0 0 45.252 45.252;" xml:space="preserve">
<g>
	<g>
		<path d="M0.001,0.646L0,38.141c0,3.556,2.909,6.465,6.465,6.465h31.03V0.646H0.001z M19.394,10.343    c2.499,0,4.525,2.027,4.525,4.525c0,2.498-2.027,4.525-4.525,4.525c-2.498,0-4.525-2.027-4.525-4.525    C14.869,12.37,16.895,10.343,19.394,10.343z M28.445,27.798L28.445,27.798H10.343v-3.677h0.012    c0.118-1.899,2.972-3.434,6.453-3.434h5.172c3.481,0,6.335,1.535,6.453,3.435h0.012V27.798z"/>
	</g>
</g>
<g>
	<g>
		<rect x="40.727" y="17.455" width="4.525" height="10.343"/>
	</g>
</g>
<g>
	<g>
		<rect x="40.727" y="31.03" width="4.525" height="10.343"/>
	</g>
</g>
<g>
	<g>
		<rect x="40.727" y="3.879" width="4.525" height="10.343"/>
	</g>
</g>
<g>
</g>
<g>
</g>
<g>
</g>
<g>
</g>
<g>
</g>
<g>
</g>
<g>
</g>
<g>
</g>
<g>
</g>
<g>
</g>
<g>
</g>
<g>
</g>
<g>
</g>
<g>
</g>
<g>
</g>
</svg>
