<?xml version="1.0" encoding="iso-8859-1"?>
<!-- Generator: Adobe Illustrator 19.0.0, SVG Export Plug-In . SVG Version: 6.00 Build 0)  -->
<svg xmlns="http://www.w3.org/2000/svg" xmlns:xlink="http://www.w3.org/1999/xlink" version="1.1" id="Capa_1" x="0px" y="0px" viewBox="0 0 58.122 58.122" style="enable-background:new 0 0 58.122 58.122;" xml:space="preserve">
<g>
	<g>
		<path d="M0,30.001c0,6.151,2.295,11.762,6.07,16.037l8.724-8.724c-1.568-2.023-2.511-4.555-2.511-7.313    c0-6.055,4.505-11.047,10.343-11.838V5.818C9.992,6.651,0,17.156,0,30.001z"/>
	</g>
</g>
<g>
	<g>
		<path d="M36.08,31.617c-0.791,5.838-5.782,10.343-11.837,10.343c-2.68,0-5.147-0.893-7.141-2.383l-8.735,8.735    c4.254,3.691,9.802,5.931,15.877,5.931c12.845,0,23.35-9.992,24.183-22.626H36.08z"/>
	</g>
</g>
<g>
	<g>
		<path d="M44.667,16.952l-2.442,2.23c1.106,1.83,1.951,3.835,2.458,5.971h-6.054c-1.512-4.479-5.059-8.025-9.537-9.537V9.561    c2.505,0.594,4.834,1.646,6.905,3.051l2.455-2.241c-3.583-2.599-7.904-4.243-12.592-4.553v12.346    c5.309,0.719,9.502,4.915,10.223,10.222h12.345C48.149,24.193,46.805,20.293,44.667,16.952z"/>
	</g>
</g>
<g>
	<g>
		<polygon points="42.607,3.879 42.607,10.516 36.331,16.246 38.51,18.632 44.759,12.929 58.122,12.929 58.122,3.879   "/>
	</g>
</g>
<g>
</g>
<g>
</g>
<g>
</g>
<g>
</g>
<g>
</g>
<g>
</g>
<g>
</g>
<g>
</g>
<g>
</g>
<g>
</g>
<g>
</g>
<g>
</g>
<g>
</g>
<g>
</g>
<g>
</g>
</svg>
