<?xml version="1.0" encoding="iso-8859-1"?>
<!-- Generator: Adobe Illustrator 19.0.0, SVG Export Plug-In . SVG Version: 6.00 Build 0)  -->
<svg xmlns="http://www.w3.org/2000/svg" xmlns:xlink="http://www.w3.org/1999/xlink" version="1.1" id="Capa_1" x="0px" y="0px" viewBox="0 0 58.183 58.183" style="enable-background:new 0 0 58.183 58.183;" xml:space="preserve">
<g>
	<g>
		<rect x="52.5" y="27.151" width="5.683" height="3.232"/>
	</g>
</g>
<g>
	<g>
		<rect x="53.008" y="39.094" transform="matrix(0.496 -0.8683 0.8683 0.496 -8.6779 68.4474)" width="3.233" height="5.211"/>
	</g>
</g>
<g>
	<g>
		<rect x="52.018" y="14.223" transform="matrix(0.8681 -0.4963 0.4963 0.8681 -0.6586 29.1993)" width="5.213" height="3.232"/>
	</g>
</g>
<g>
	<g>
		<path d="M6.465,21.657H5.818L0,18.425v20.687l5.818-3.232h0.646l7.635,2.66L13.268,41c-1.138,3.368,0.686,7.054,4.055,8.193    l5.511,1.861c0.681,0.229,1.374,0.339,2.058,0.339c2.698,0,5.23-1.705,6.137-4.394l0.774-2.29l17.328,6.039V6.789L6.465,21.657z     M27.966,45.966c-0.443,1.313-1.679,2.195-3.075,2.195c-0.346,0-0.69-0.057-1.024-0.17l-5.51-1.86    c-1.688-0.571-2.598-2.409-2.028-4.096l0.822-2.432l11.599,4.042L27.966,45.966z M44.606,44.378l-5.818-2.027V15.185l5.818-2.027    V44.378z"/>
	</g>
</g>
<g>
</g>
<g>
</g>
<g>
</g>
<g>
</g>
<g>
</g>
<g>
</g>
<g>
</g>
<g>
</g>
<g>
</g>
<g>
</g>
<g>
</g>
<g>
</g>
<g>
</g>
<g>
</g>
<g>
</g>
</svg>
