<?xml version="1.0" encoding="iso-8859-1"?>
<!-- Generator: Adobe Illustrator 19.0.0, SVG Export Plug-In . SVG Version: 6.00 Build 0)  -->
<svg xmlns="http://www.w3.org/2000/svg" xmlns:xlink="http://www.w3.org/1999/xlink" version="1.1" id="Capa_1" x="0px" y="0px" viewBox="0 0 51.071 51.071" style="enable-background:new 0 0 51.071 51.071;" xml:space="preserve">
<g>
	<g>
		<rect x="33.616" y="3.232" width="6.465" height="6.465"/>
	</g>
</g>
<g>
	<g>
		<rect x="17.455" y="20.04" width="6.465" height="4.525"/>
	</g>
</g>
<g>
	<g>
		<rect x="27.15" y="20.04" width="6.465" height="4.525"/>
	</g>
</g>
<g>
	<g>
		<rect x="36.849" y="20.04" width="6.465" height="4.525"/>
	</g>
</g>
<g>
	<g>
		<rect x="7.758" y="27.798" width="6.465" height="4.525"/>
	</g>
</g>
<g>
	<g>
		<rect x="17.455" y="27.798" width="6.465" height="4.525"/>
	</g>
</g>
<g>
	<g>
		<rect x="27.15" y="27.798" width="6.465" height="4.525"/>
	</g>
</g>
<g>
	<g>
		<rect x="36.849" y="27.798" width="6.465" height="4.525"/>
	</g>
</g>
<g>
	<g>
		<rect x="7.758" y="35.556" width="6.465" height="4.525"/>
	</g>
</g>
<g>
	<g>
		<rect x="17.455" y="35.556" width="6.465" height="4.525"/>
	</g>
</g>
<g>
	<g>
		<rect x="27.15" y="35.556" width="6.465" height="4.525"/>
	</g>
</g>
<g>
	<g>
		<rect x="10.99" y="3.232" width="6.465" height="6.465"/>
	</g>
</g>
<g>
	<g>
		<path d="M43.313,7.758v5.172H30.384V7.758h-9.697v5.172H7.758V7.758H0v33.616c0,3.556,2.909,6.465,6.465,6.465h38.141    c3.556,0,6.465-2.909,6.465-6.465V7.758H43.313z M46.546,41.374h-0.001c0,1.051-0.888,1.939-1.939,1.939H6.465    c-1.051,0-1.939-0.888-1.939-1.939V16.808h42.02V41.374z"/>
	</g>
</g>
<g>
</g>
<g>
</g>
<g>
</g>
<g>
</g>
<g>
</g>
<g>
</g>
<g>
</g>
<g>
</g>
<g>
</g>
<g>
</g>
<g>
</g>
<g>
</g>
<g>
</g>
<g>
</g>
<g>
</g>
</svg>
