<?xml version="1.0" encoding="iso-8859-1"?>
<!-- Generator: Adobe Illustrator 19.0.0, SVG Export Plug-In . SVG Version: 6.00 Build 0)  -->
<svg xmlns="http://www.w3.org/2000/svg" xmlns:xlink="http://www.w3.org/1999/xlink" version="1.1" id="Capa_1" x="0px" y="0px" viewBox="0 0 58.179 58.179" style="enable-background:new 0 0 58.179 58.179;" xml:space="preserve">
<g>
	<g>
		<path d="M42.344,12.605c-1.965,0-3.556,1.594-3.556,3.556c0,0.486,0.098,0.948,0.273,1.369l-3.799,4.384    c-0.411-0.164-0.856-0.257-1.324-0.257c-0.88,0-1.683,0.321-2.304,0.851l-3.902-1.843c-0.314-1.642-1.757-2.886-3.491-2.886    c-1.965,0-3.556,1.594-3.556,3.556c0,0.262,0.03,0.517,0.084,0.763l-3.556,3.069c-0.423-0.179-0.888-0.277-1.376-0.277    c-1.965,0-3.556,1.594-3.556,3.556c0,1.965,1.59,3.556,3.556,3.556c1.962,0,3.556-1.59,3.556-3.556    c0-0.278-0.036-0.548-0.096-0.807l3.526-3.044c0.434,0.189,0.913,0.295,1.418,0.295c1.005,0,1.912-0.419,2.558-1.09l3.598,1.698    c0.145,1.831,1.672,3.27,3.541,3.27c1.962,0,3.556-1.59,3.556-3.556c0-0.284-0.037-0.559-0.1-0.823l4.133-4.769    c0.262,0.061,0.534,0.097,0.815,0.097c1.962,0,3.556-1.59,3.556-3.556C45.9,14.198,44.306,12.605,42.344,12.605z"/>
	</g>
</g>
<g>
	<g>
		<path d="M0,4.847v4.525h3.232v23.919c0,3.556,2.909,6.465,6.465,6.465h17.131v5.277l-10.506,7.764    c2.048,0.882,4.501,0.693,6.414-0.72l4.091-3.024v4.279h4.525v-4.279l4.091,3.024c1.914,1.414,4.366,1.603,6.414,0.72    l-10.506-7.764v-5.277h17.131c3.556,0,6.465-2.909,6.465-6.465V9.373h3.232V4.847H0z M50.425,33.292L50.425,33.292    c-0.001,1.051-0.889,1.939-1.94,1.939H9.697c-1.051,0-1.939-0.888-1.939-1.939V9.373h42.667V33.292z"/>
	</g>
</g>
<g>
</g>
<g>
</g>
<g>
</g>
<g>
</g>
<g>
</g>
<g>
</g>
<g>
</g>
<g>
</g>
<g>
</g>
<g>
</g>
<g>
</g>
<g>
</g>
<g>
</g>
<g>
</g>
<g>
</g>
</svg>
