<?xml version="1.0" encoding="iso-8859-1"?>
<!-- Generator: Adobe Illustrator 19.0.0, SVG Export Plug-In . SVG Version: 6.00 Build 0)  -->
<svg xmlns="http://www.w3.org/2000/svg" xmlns:xlink="http://www.w3.org/1999/xlink" version="1.1" id="Capa_1" x="0px" y="0px" viewBox="0 0 54.304 54.304" style="enable-background:new 0 0 54.304 54.304;" xml:space="preserve">
<g>
	<g>
		<path d="M0,7.435v32.97c0,3.556,2.909,6.465,6.465,6.465h41.374c3.556,0,6.465-2.909,6.465-6.465V7.435H0z M48.162,10.022    c0.892,0,1.616,0.724,1.616,1.616c0,0.893-0.724,1.616-1.616,1.616c-0.893,0-1.616-0.723-1.616-1.616    C46.546,10.746,47.269,10.022,48.162,10.022z M42.99,10.021c0.893,0,1.616,0.723,1.616,1.616s-0.723,1.616-1.616,1.616    s-1.616-0.723-1.616-1.616S42.097,10.021,42.99,10.021z M18.101,42.344c0-4.998,4.053-9.051,9.052-9.051    c4.996,0,9.049,4.052,9.049,9.051H18.101z M49.779,40.405L49.779,40.405c-0.001,1.051-0.889,1.939-1.94,1.939h-0.646    c0-1.557-0.185-3.07-0.522-4.525h-3.332c-0.367-1.312-0.886-2.559-1.542-3.72l2.352-2.353c-1.619-2.588-3.812-4.781-6.399-6.399    l-2.353,2.353c-1.16-0.656-2.407-1.175-3.72-1.542v-3.332c-1.455-0.337-2.968-0.522-4.525-0.522c-1.557,0-3.07,0.184-4.525,0.522    v3.332c-1.312,0.366-2.559,0.886-3.72,1.542l-2.353-2.352c-2.588,1.619-4.781,3.812-6.399,6.399l2.353,2.352    c-0.656,1.162-1.175,2.409-1.542,3.72H7.633c-0.337,1.455-0.522,2.969-0.522,4.525H6.465c-1.051,0-1.939-0.888-1.939-1.939V16.485    h45.253V40.405z"/>
	</g>
</g>
<g>
</g>
<g>
</g>
<g>
</g>
<g>
</g>
<g>
</g>
<g>
</g>
<g>
</g>
<g>
</g>
<g>
</g>
<g>
</g>
<g>
</g>
<g>
</g>
<g>
</g>
<g>
</g>
<g>
</g>
</svg>
