<?xml version="1.0" encoding="iso-8859-1"?>
<!-- Generator: Adobe Illustrator 19.0.0, SVG Export Plug-In . SVG Version: 6.00 Build 0)  -->
<svg xmlns="http://www.w3.org/2000/svg" xmlns:xlink="http://www.w3.org/1999/xlink" version="1.1" id="Capa_1" x="0px" y="0px" viewBox="0 0 54.303 54.303" style="enable-background:new 0 0 54.303 54.303;" xml:space="preserve">
<g>
	<g>
		<path d="M52.364,43.314v-0.001V14.221h-5.818v-3.879h-12.93v3.879h-5.818v29.091h-3.232V6.465H1.939v36.849H0v4.525h54.303v-4.525    H52.364z M20.04,38.465H6.465v-3.232H20.04V38.465z M20.04,30.706H6.465v-3.232H20.04V30.706z M20.04,22.95H6.465v-3.232H20.04    V22.95z M20.04,15.192H6.465V11.96H20.04V15.192z M47.838,38.465H32.323v-3.232h15.515V38.465z M47.838,30.706H32.323v-3.232    h15.515V30.706z M47.838,22.95H32.323v-3.232h15.515V22.95z"/>
	</g>
</g>
<g>
</g>
<g>
</g>
<g>
</g>
<g>
</g>
<g>
</g>
<g>
</g>
<g>
</g>
<g>
</g>
<g>
</g>
<g>
</g>
<g>
</g>
<g>
</g>
<g>
</g>
<g>
</g>
<g>
</g>
</svg>
